solid CATIA STL
  facet normal  9.466182e-004 -3.285246e-001  9.444949e-001
    outer loop
      vertex  7.723077e+001 -1.483320e+001  4.512457e+001
      vertex  7.451107e+001 -1.499203e+001  4.507204e+001
      vertex  7.500000e+001 -1.624596e+001  4.463540e+001
    endloop
  endfacet
  facet normal -7.345540e-003  9.364559e-002  9.955785e-001
    outer loop
      vertex  4.300000e+001  8.248288e+000  4.677837e+001
      vertex  6.026833e+001  2.824511e+000  4.741595e+001
      vertex  6.119080e+001  5.857127e+000  4.713750e+001
    endloop
  endfacet
  facet normal  4.861330e-004  1.521408e-001  9.883588e-001
    outer loop
      vertex  6.119080e+001  5.857127e+000  4.713750e+001
      vertex  6.272072e+001  8.615062e+000  4.671221e+001
      vertex  4.300000e+001  8.248288e+000  4.677837e+001
    endloop
  endfacet
  facet normal  9.146419e-003 -8.845854e-002  9.960378e-001
    outer loop
      vertex  8.891531e+001 -5.600366e+000  4.716870e+001
      vertex  1.070000e+002  2.908536e-015  4.750000e+001
      vertex  8.978092e+001 -2.554261e+000  4.743127e+001
    endloop
  endfacet
  facet normal  1.119989e-002  8.004182e-002  9.967285e-001
    outer loop
      vertex  8.979537e+001  2.469194e+000  4.743578e+001
      vertex  1.070000e+002  8.248288e+000  4.677837e+001
      vertex  8.918904e+001  4.865289e+000  4.725018e+001
    endloop
  endfacet
  facet normal  4.804137e-004  1.356454e-001  9.907573e-001
    outer loop
      vertex  1.070000e+002  8.248288e+000  4.677837e+001
      vertex  8.769331e+001  7.992485e+000  4.682275e+001
      vertex  8.918904e+001  4.865289e+000  4.725018e+001
    endloop
  endfacet
  facet normal -4.055533e-003 -2.588172e-001  9.659178e-001
    outer loop
      vertex  4.300000e+001 -8.248288e+000  4.677837e+001
      vertex  4.300000e+001 -1.624596e+001  4.463540e+001
      vertex  7.180916e+001 -1.465669e+001  4.518220e+001
    endloop
  endfacet
  facet normal -4.812167e-002 -4.397141e-001  8.968476e-001
    outer loop
      vertex  4.300000e+001 -8.248288e+000  4.677837e+001
      vertex  7.180916e+001 -1.465669e+001  4.518220e+001
      vertex  6.941917e+001 -1.392316e+001  4.541360e+001
    endloop
  endfacet
  facet normal -1.882624e-002 -3.157868e-001  9.486434e-001
    outer loop
      vertex  4.300000e+001 -8.248288e+000  4.677837e+001
      vertex  6.941917e+001 -1.392316e+001  4.541360e+001
      vertex  6.719323e+001 -1.280837e+001  4.574052e+001
    endloop
  endfacet
  facet normal -6.576478e-003 -2.549583e-001  9.669297e-001
    outer loop
      vertex  4.300000e+001 -8.248288e+000  4.677837e+001
      vertex  6.719323e+001 -1.280837e+001  4.574052e+001
      vertex  6.444490e+001 -1.065785e+001  4.628888e+001
    endloop
  endfacet
  facet normal  4.283631e-004 -1.954173e-001  9.807201e-001
    outer loop
      vertex  4.300000e+001 -8.248288e+000  4.677837e+001
      vertex  6.444490e+001 -1.065785e+001  4.628888e+001
      vertex  6.226755e+001 -7.929990e+000  4.683338e+001
    endloop
  endfacet
  facet normal -1.404286e-003 -8.715546e-002  9.961936e-001
    outer loop
      vertex  4.300000e+001 -8.248288e+000  4.677837e+001
      vertex  6.226755e+001 -7.929990e+000  4.683338e+001
      vertex  4.300000e+001  2.908536e-015  4.750000e+001
    endloop
  endfacet
  facet normal -2.969395e-002 -1.551555e-001  9.874437e-001
    outer loop
      vertex  4.300000e+001  2.908536e-015  4.750000e+001
      vertex  6.226755e+001 -7.929990e+000  4.683338e+001
      vertex  6.101720e+001 -5.429677e+000  4.718865e+001
    endloop
  endfacet
  facet normal -9.481772e-003 -8.857781e-002  9.960242e-001
    outer loop
      vertex  4.300000e+001  2.908536e-015  4.750000e+001
      vertex  6.101720e+001 -5.429677e+000  4.718865e+001
      vertex  6.025021e+001 -2.728331e+000  4.742158e+001
    endloop
  endfacet
  facet normal  2.244771e-007 -2.872910e-002  9.995872e-001
    outer loop
      vertex  4.300000e+001  2.908536e-015  4.750000e+001
      vertex  6.025021e+001 -2.728331e+000  4.742158e+001
      vertex  6.000000e+001  8.498309e-015  4.750000e+001
    endloop
  endfacet
  facet normal  2.242947e-007  2.974390e-002  9.995576e-001
    outer loop
      vertex  4.300000e+001  2.908536e-015  4.750000e+001
      vertex  6.000000e+001  8.498309e-015  4.750000e+001
      vertex  6.026833e+001  2.824511e+000  4.741595e+001
    endloop
  endfacet
  facet normal -9.406320e-003  8.715169e-002  9.961506e-001
    outer loop
      vertex  4.300000e+001  2.908536e-015  4.750000e+001
      vertex  6.026833e+001  2.824511e+000  4.741595e+001
      vertex  4.300000e+001  8.248288e+000  4.677837e+001
    endloop
  endfacet
  facet normal -1.573171e-003  2.588190e-001  9.659246e-001
    outer loop
      vertex  4.300000e+001  1.624596e+001  4.463540e+001
      vertex  4.300000e+001  8.248288e+000  4.677837e+001
      vertex  6.272072e+001  8.615062e+000  4.671221e+001
    endloop
  endfacet
  facet normal -1.725538e-002  2.208060e-001  9.751651e-001
    outer loop
      vertex  4.300000e+001  1.624596e+001  4.463540e+001
      vertex  6.272072e+001  8.615062e+000  4.671221e+001
      vertex  6.479306e+001  1.099174e+001  4.621073e+001
    endloop
  endfacet
  facet normal -7.064234e-003  2.601879e-001  9.655321e-001
    outer loop
      vertex  4.300000e+001  1.624596e+001  4.463540e+001
      vertex  6.479306e+001  1.099174e+001  4.621073e+001
      vertex  6.731782e+001  1.288348e+001  4.571943e+001
    endloop
  endfacet
  facet normal -2.728140e-003  2.889099e-001  9.573524e-001
    outer loop
      vertex  4.300000e+001  1.624596e+001  4.463540e+001
      vertex  6.731782e+001  1.288348e+001  4.571943e+001
      vertex  6.978290e+001  1.406349e+001  4.537035e+001
    endloop
  endfacet
  facet normal -1.077886e-003  3.072355e-001  9.516329e-001
    outer loop
      vertex  4.300000e+001  1.624596e+001  4.463540e+001
      vertex  6.978290e+001  1.406349e+001  4.537035e+001
      vertex  7.243353e+001  1.477881e+001  4.514241e+001
    endloop
  endfacet
  facet normal -3.001746e-004  3.212364e-001  9.469989e-001
    outer loop
      vertex  4.300000e+001  1.624596e+001  4.463540e+001
      vertex  7.243353e+001  1.477881e+001  4.514241e+001
      vertex  7.664608e+001  1.490941e+001  4.509944e+001
    endloop
  endfacet
  facet normal  0.000000e+000  3.279885e-001  9.446818e-001
    outer loop
      vertex  4.300000e+001  1.624596e+001  4.463540e+001
      vertex  7.664608e+001  1.490941e+001  4.509944e+001
      vertex  7.500000e+001  1.624596e+001  4.463540e+001
    endloop
  endfacet
  facet normal  8.739709e-003 -8.715222e-002  9.961566e-001
    outer loop
      vertex  1.070000e+002 -8.248288e+000  4.677837e+001
      vertex  1.070000e+002  2.908536e-015  4.750000e+001
      vertex  8.891531e+001 -5.600366e+000  4.716870e+001
    endloop
  endfacet
  facet normal -1.987217e-004 -1.471613e-001  9.891125e-001
    outer loop
      vertex  1.070000e+002 -8.248288e+000  4.677837e+001
      vertex  8.891531e+001 -5.600366e+000  4.716870e+001
      vertex  8.743844e+001 -8.383634e+000  4.675430e+001
    endloop
  endfacet
  facet normal  2.102320e-004 -2.044475e-001  9.788775e-001
    outer loop
      vertex  1.070000e+002 -8.248288e+000  4.677837e+001
      vertex  8.743844e+001 -8.383634e+000  4.675430e+001
      vertex  8.518227e+001 -1.101459e+001  4.620529e+001
    endloop
  endfacet
  facet normal  8.119401e-003 -2.638541e-001  9.645284e-001
    outer loop
      vertex  1.070000e+002 -8.248288e+000  4.677837e+001
      vertex  8.518227e+001 -1.101459e+001  4.620529e+001
      vertex  8.238071e+001 -1.305852e+001  4.566974e+001
    endloop
  endfacet
  facet normal  2.239289e-002 -3.319525e-001  9.430302e-001
    outer loop
      vertex  1.070000e+002 -8.248288e+000  4.677837e+001
      vertex  8.238071e+001 -1.305852e+001  4.566974e+001
      vertex  7.989281e+001 -1.417957e+001  4.533420e+001
    endloop
  endfacet
  facet normal  1.116986e-001 -6.856303e-001  7.193292e-001
    outer loop
      vertex  1.070000e+002 -8.248288e+000  4.677837e+001
      vertex  7.989281e+001 -1.417957e+001  4.533420e+001
      vertex  7.723077e+001 -1.483320e+001  4.512457e+001
    endloop
  endfacet
  facet normal  3.002853e-002 -3.690536e-001  9.289229e-001
    outer loop
      vertex  1.070000e+002 -8.248288e+000  4.677837e+001
      vertex  7.723077e+001 -1.483320e+001  4.512457e+001
      vertex  7.500000e+001 -1.624596e+001  4.463540e+001
    endloop
  endfacet
  facet normal  0.000000e+000 -2.588193e-001  9.659258e-001
    outer loop
      vertex  1.070000e+002 -8.248288e+000  4.677837e+001
      vertex  7.500000e+001 -1.624596e+001  4.463540e+001
      vertex  1.070000e+002 -1.624596e+001  4.463540e+001
    endloop
  endfacet
  facet normal  -0.000000e+000  3.279885e-001  9.446818e-001
    outer loop
      vertex  1.070000e+002  1.624596e+001  4.463540e+001
      vertex  7.500000e+001  1.624596e+001  4.463540e+001
      vertex  7.664608e+001  1.490941e+001  4.509944e+001
    endloop
  endfacet
  facet normal  7.644233e-004  3.124513e-001  9.499335e-001
    outer loop
      vertex  1.070000e+002  1.624596e+001  4.463540e+001
      vertex  7.664608e+001  1.490941e+001  4.509944e+001
      vertex  7.907314e+001  1.443640e+001  4.525307e+001
    endloop
  endfacet
  facet normal  1.725233e-003  2.990877e-001  9.542241e-001
    outer loop
      vertex  1.070000e+002  1.624596e+001  4.463540e+001
      vertex  7.907314e+001  1.443640e+001  4.525307e+001
      vertex  8.138099e+001  1.357509e+001  4.551886e+001
    endloop
  endfacet
  facet normal  4.041033e-003  2.788892e-001  9.603147e-001
    outer loop
      vertex  1.070000e+002  1.624596e+001  4.463540e+001
      vertex  8.138099e+001  1.357509e+001  4.551886e+001
      vertex  8.358130e+001  1.230290e+001  4.587907e+001
    endloop
  endfacet
  facet normal  8.943793e-003  2.520883e-001  9.676629e-001
    outer loop
      vertex  1.070000e+002  1.624596e+001  4.463540e+001
      vertex  8.358130e+001  1.230290e+001  4.587907e+001
      vertex  8.553057e+001  1.068209e+001  4.628329e+001
    endloop
  endfacet
  facet normal  2.003282e-002  2.120783e-001  9.770473e-001
    outer loop
      vertex  1.070000e+002  1.624596e+001  4.463540e+001
      vertex  8.553057e+001  1.068209e+001  4.628329e+001
      vertex  8.769331e+001  7.992485e+000  4.682275e+001
    endloop
  endfacet
  facet normal -1.208660e-003  2.588191e-001  9.659250e-001
    outer loop
      vertex  1.070000e+002  1.624596e+001  4.463540e+001
      vertex  8.769331e+001  7.992485e+000  4.682275e+001
      vertex  1.070000e+002  8.248288e+000  4.677837e+001
    endloop
  endfacet
  facet normal  0.000000e+000 -4.226181e-001  9.063079e-001
    outer loop
      vertex  1.070000e+002 -1.624596e+001  4.463540e+001
      vertex  7.500000e+001 -1.624596e+001  4.463540e+001
      vertex  1.070000e+002 -2.375000e+001  4.113621e+001
    endloop
  endfacet
  facet normal  0.000000e+000 -4.226181e-001  9.063079e-001
    outer loop
      vertex  1.070000e+002 -2.375000e+001  4.113621e+001
      vertex  7.500000e+001 -1.624596e+001  4.463540e+001
      vertex  7.500000e+001 -2.375000e+001  4.113621e+001
    endloop
  endfacet
  facet normal  0.000000e+000 -5.735765e-001  8.191521e-001
    outer loop
      vertex  1.070000e+002 -2.375000e+001  4.113621e+001
      vertex  7.500000e+001 -2.375000e+001  4.113621e+001
      vertex  1.070000e+002 -3.053241e+001  3.638711e+001
    endloop
  endfacet
  facet normal  0.000000e+000 -5.735765e-001  8.191521e-001
    outer loop
      vertex  1.070000e+002 -3.053241e+001  3.638711e+001
      vertex  7.500000e+001 -2.375000e+001  4.113621e+001
      vertex  7.500000e+001 -3.053241e+001  3.638711e+001
    endloop
  endfacet
  facet normal  0.000000e+000 -7.071068e-001  7.071068e-001
    outer loop
      vertex  1.070000e+002 -3.053241e+001  3.638711e+001
      vertex  7.500000e+001 -3.053241e+001  3.638711e+001
      vertex  1.070000e+002 -3.638711e+001  3.053241e+001
    endloop
  endfacet
  facet normal  0.000000e+000 -7.071068e-001  7.071068e-001
    outer loop
      vertex  1.070000e+002 -3.638711e+001  3.053241e+001
      vertex  7.500000e+001 -3.053241e+001  3.638711e+001
      vertex  7.500000e+001 -3.638711e+001  3.053241e+001
    endloop
  endfacet
  facet normal  0.000000e+000 -8.191521e-001  5.735765e-001
    outer loop
      vertex  1.070000e+002 -3.638711e+001  3.053241e+001
      vertex  7.500000e+001 -3.638711e+001  3.053241e+001
      vertex  1.070000e+002 -4.113621e+001  2.375000e+001
    endloop
  endfacet
  facet normal  0.000000e+000 -8.191521e-001  5.735765e-001
    outer loop
      vertex  1.070000e+002 -4.113621e+001  2.375000e+001
      vertex  7.500000e+001 -3.638711e+001  3.053241e+001
      vertex  7.500000e+001 -4.113621e+001  2.375000e+001
    endloop
  endfacet
  facet normal  0.000000e+000 -9.063079e-001  4.226181e-001
    outer loop
      vertex  1.070000e+002 -4.113621e+001  2.375000e+001
      vertex  7.500000e+001 -4.113621e+001  2.375000e+001
      vertex  1.070000e+002 -4.463540e+001  1.624596e+001
    endloop
  endfacet
  facet normal  0.000000e+000 -9.063079e-001  4.226181e-001
    outer loop
      vertex  1.070000e+002 -4.463540e+001  1.624596e+001
      vertex  7.500000e+001 -4.113621e+001  2.375000e+001
      vertex  7.500000e+001 -4.463540e+001  1.624596e+001
    endloop
  endfacet
  facet normal  0.000000e+000 -9.659258e-001  2.588193e-001
    outer loop
      vertex  1.070000e+002 -4.463540e+001  1.624596e+001
      vertex  7.500000e+001 -4.463540e+001  1.624596e+001
      vertex  1.070000e+002 -4.677837e+001  8.248288e+000
    endloop
  endfacet
  facet normal  0.000000e+000 -9.659258e-001  2.588193e-001
    outer loop
      vertex  1.070000e+002 -4.677837e+001  8.248288e+000
      vertex  7.500000e+001 -4.463540e+001  1.624596e+001
      vertex  7.500000e+001 -4.677837e+001  8.248288e+000
    endloop
  endfacet
  facet normal  0.000000e+000 -9.961947e-001  8.715555e-002
    outer loop
      vertex  1.070000e+002 -4.677837e+001  8.248288e+000
      vertex  7.500000e+001 -4.677837e+001  8.248288e+000
      vertex  1.070000e+002 -4.750000e+001  5.817072e-015
    endloop
  endfacet
  facet normal  0.000000e+000 -9.961947e-001  8.715555e-002
    outer loop
      vertex  1.070000e+002 -4.750000e+001  5.817072e-015
      vertex  7.500000e+001 -4.677837e+001  8.248288e+000
      vertex  4.300000e+001 -4.750000e+001  5.817072e-015
    endloop
  endfacet
  facet normal  -0.000000e+000  9.961947e-001  8.715555e-002
    outer loop
      vertex  1.070000e+002  4.750000e+001  0.000000e+000
      vertex  4.300000e+001  4.750000e+001  0.000000e+000
      vertex  7.500000e+001  4.677837e+001  8.248288e+000
    endloop
  endfacet
  facet normal  0.000000e+000  9.961947e-001  8.715555e-002
    outer loop
      vertex  7.500000e+001  4.677837e+001  8.248288e+000
      vertex  4.300000e+001  4.750000e+001  0.000000e+000
      vertex  4.300000e+001  4.677837e+001  8.248288e+000
    endloop
  endfacet
  facet normal  -0.000000e+000  9.659258e-001  2.588193e-001
    outer loop
      vertex  7.500000e+001  4.677837e+001  8.248288e+000
      vertex  4.300000e+001  4.677837e+001  8.248288e+000
      vertex  7.500000e+001  4.463540e+001  1.624596e+001
    endloop
  endfacet
  facet normal  0.000000e+000  9.659258e-001  2.588193e-001
    outer loop
      vertex  7.500000e+001  4.463540e+001  1.624596e+001
      vertex  4.300000e+001  4.677837e+001  8.248288e+000
      vertex  4.300000e+001  4.463540e+001  1.624596e+001
    endloop
  endfacet
  facet normal  -0.000000e+000  9.063079e-001  4.226181e-001
    outer loop
      vertex  7.500000e+001  4.463540e+001  1.624596e+001
      vertex  4.300000e+001  4.463540e+001  1.624596e+001
      vertex  7.500000e+001  4.113621e+001  2.375000e+001
    endloop
  endfacet
  facet normal  0.000000e+000  9.063079e-001  4.226181e-001
    outer loop
      vertex  7.500000e+001  4.113621e+001  2.375000e+001
      vertex  4.300000e+001  4.463540e+001  1.624596e+001
      vertex  4.300000e+001  4.113621e+001  2.375000e+001
    endloop
  endfacet
  facet normal  -0.000000e+000  8.191521e-001  5.735765e-001
    outer loop
      vertex  7.500000e+001  4.113621e+001  2.375000e+001
      vertex  4.300000e+001  4.113621e+001  2.375000e+001
      vertex  7.500000e+001  3.638711e+001  3.053241e+001
    endloop
  endfacet
  facet normal  0.000000e+000  8.191521e-001  5.735765e-001
    outer loop
      vertex  7.500000e+001  3.638711e+001  3.053241e+001
      vertex  4.300000e+001  4.113621e+001  2.375000e+001
      vertex  4.300000e+001  3.638711e+001  3.053241e+001
    endloop
  endfacet
  facet normal  -0.000000e+000  7.071068e-001  7.071068e-001
    outer loop
      vertex  7.500000e+001  3.638711e+001  3.053241e+001
      vertex  4.300000e+001  3.638711e+001  3.053241e+001
      vertex  7.500000e+001  3.053241e+001  3.638711e+001
    endloop
  endfacet
  facet normal  0.000000e+000  7.071068e-001  7.071068e-001
    outer loop
      vertex  7.500000e+001  3.053241e+001  3.638711e+001
      vertex  4.300000e+001  3.638711e+001  3.053241e+001
      vertex  4.300000e+001  3.053241e+001  3.638711e+001
    endloop
  endfacet
  facet normal  -0.000000e+000  5.735765e-001  8.191521e-001
    outer loop
      vertex  7.500000e+001  3.053241e+001  3.638711e+001
      vertex  4.300000e+001  3.053241e+001  3.638711e+001
      vertex  7.500000e+001  2.375000e+001  4.113621e+001
    endloop
  endfacet
  facet normal  0.000000e+000  5.735765e-001  8.191521e-001
    outer loop
      vertex  7.500000e+001  2.375000e+001  4.113621e+001
      vertex  4.300000e+001  3.053241e+001  3.638711e+001
      vertex  4.300000e+001  2.375000e+001  4.113621e+001
    endloop
  endfacet
  facet normal  -0.000000e+000  4.226181e-001  9.063079e-001
    outer loop
      vertex  7.500000e+001  2.375000e+001  4.113621e+001
      vertex  4.300000e+001  2.375000e+001  4.113621e+001
      vertex  7.500000e+001  1.624596e+001  4.463540e+001
    endloop
  endfacet
  facet normal  0.000000e+000  4.226181e-001  9.063079e-001
    outer loop
      vertex  7.500000e+001  1.624596e+001  4.463540e+001
      vertex  4.300000e+001  2.375000e+001  4.113621e+001
      vertex  4.300000e+001  1.624596e+001  4.463540e+001
    endloop
  endfacet
  facet normal -2.428986e-003 -3.296975e-001  9.440835e-001
    outer loop
      vertex  7.451107e+001 -1.499203e+001  4.507204e+001
      vertex  7.180916e+001 -1.465669e+001  4.518220e+001
      vertex  7.500000e+001 -1.624596e+001  4.463540e+001
    endloop
  endfacet
  facet normal  0.000000e+000 -3.253414e-001  9.455966e-001
    outer loop
      vertex  7.500000e+001 -1.624596e+001  4.463540e+001
      vertex  7.180916e+001 -1.465669e+001  4.518220e+001
      vertex  4.300000e+001 -1.624596e+001  4.463540e+001
    endloop
  endfacet
  facet normal  0.000000e+000 -4.226181e-001  9.063079e-001
    outer loop
      vertex  7.500000e+001 -1.624596e+001  4.463540e+001
      vertex  4.300000e+001 -1.624596e+001  4.463540e+001
      vertex  7.500000e+001 -2.375000e+001  4.113621e+001
    endloop
  endfacet
  facet normal  0.000000e+000 -4.226181e-001  9.063079e-001
    outer loop
      vertex  7.500000e+001 -2.375000e+001  4.113621e+001
      vertex  4.300000e+001 -1.624596e+001  4.463540e+001
      vertex  4.300000e+001 -2.375000e+001  4.113621e+001
    endloop
  endfacet
  facet normal  0.000000e+000 -5.735765e-001  8.191521e-001
    outer loop
      vertex  7.500000e+001 -2.375000e+001  4.113621e+001
      vertex  4.300000e+001 -2.375000e+001  4.113621e+001
      vertex  7.500000e+001 -3.053241e+001  3.638711e+001
    endloop
  endfacet
  facet normal  0.000000e+000 -5.735765e-001  8.191521e-001
    outer loop
      vertex  7.500000e+001 -3.053241e+001  3.638711e+001
      vertex  4.300000e+001 -2.375000e+001  4.113621e+001
      vertex  4.300000e+001 -3.053241e+001  3.638711e+001
    endloop
  endfacet
  facet normal  0.000000e+000 -7.071068e-001  7.071068e-001
    outer loop
      vertex  7.500000e+001 -3.053241e+001  3.638711e+001
      vertex  4.300000e+001 -3.053241e+001  3.638711e+001
      vertex  7.500000e+001 -3.638711e+001  3.053241e+001
    endloop
  endfacet
  facet normal  0.000000e+000 -7.071068e-001  7.071068e-001
    outer loop
      vertex  7.500000e+001 -3.638711e+001  3.053241e+001
      vertex  4.300000e+001 -3.053241e+001  3.638711e+001
      vertex  4.300000e+001 -3.638711e+001  3.053241e+001
    endloop
  endfacet
  facet normal  0.000000e+000 -8.191521e-001  5.735765e-001
    outer loop
      vertex  7.500000e+001 -3.638711e+001  3.053241e+001
      vertex  4.300000e+001 -3.638711e+001  3.053241e+001
      vertex  7.500000e+001 -4.113621e+001  2.375000e+001
    endloop
  endfacet
  facet normal  0.000000e+000 -8.191521e-001  5.735765e-001
    outer loop
      vertex  7.500000e+001 -4.113621e+001  2.375000e+001
      vertex  4.300000e+001 -3.638711e+001  3.053241e+001
      vertex  4.300000e+001 -4.113621e+001  2.375000e+001
    endloop
  endfacet
  facet normal  0.000000e+000 -9.063079e-001  4.226181e-001
    outer loop
      vertex  7.500000e+001 -4.113621e+001  2.375000e+001
      vertex  4.300000e+001 -4.113621e+001  2.375000e+001
      vertex  7.500000e+001 -4.463540e+001  1.624596e+001
    endloop
  endfacet
  facet normal  0.000000e+000 -9.063079e-001  4.226181e-001
    outer loop
      vertex  7.500000e+001 -4.463540e+001  1.624596e+001
      vertex  4.300000e+001 -4.113621e+001  2.375000e+001
      vertex  4.300000e+001 -4.463540e+001  1.624596e+001
    endloop
  endfacet
  facet normal  0.000000e+000 -9.659258e-001  2.588193e-001
    outer loop
      vertex  7.500000e+001 -4.463540e+001  1.624596e+001
      vertex  4.300000e+001 -4.463540e+001  1.624596e+001
      vertex  7.500000e+001 -4.677837e+001  8.248288e+000
    endloop
  endfacet
  facet normal  0.000000e+000 -9.659258e-001  2.588193e-001
    outer loop
      vertex  7.500000e+001 -4.677837e+001  8.248288e+000
      vertex  4.300000e+001 -4.463540e+001  1.624596e+001
      vertex  4.300000e+001 -4.677837e+001  8.248288e+000
    endloop
  endfacet
  facet normal  0.000000e+000 -9.961947e-001  8.715555e-002
    outer loop
      vertex  7.500000e+001 -4.677837e+001  8.248288e+000
      vertex  4.300000e+001 -4.677837e+001  8.248288e+000
      vertex  4.300000e+001 -4.750000e+001  5.817072e-015
    endloop
  endfacet
  facet normal  8.789617e-003  8.715218e-002  9.961562e-001
    outer loop
      vertex  1.070000e+002  8.248288e+000  4.677837e+001
      vertex  8.979537e+001  2.469194e+000  4.743578e+001
      vertex  1.070000e+002  2.908536e-015  4.750000e+001
    endloop
  endfacet
  facet normal -4.448327e-018  2.599987e-002  9.996620e-001
    outer loop
      vertex  1.070000e+002  2.908536e-015  4.750000e+001
      vertex  8.979537e+001  2.469194e+000  4.743578e+001
      vertex  9.000000e+001  0.000000e+000  4.750000e+001
    endloop
  endfacet
  facet normal  4.601735e-018 -2.689652e-002  9.996382e-001
    outer loop
      vertex  1.070000e+002  2.908536e-015  4.750000e+001
      vertex  9.000000e+001  0.000000e+000  4.750000e+001
      vertex  8.978092e+001 -2.554261e+000  4.743127e+001
    endloop
  endfacet
  facet normal  0.000000e+000  4.226181e-001  9.063079e-001
    outer loop
      vertex  7.500000e+001  1.624596e+001  4.463540e+001
      vertex  1.070000e+002  1.624596e+001  4.463540e+001
      vertex  7.500000e+001  2.375000e+001  4.113621e+001
    endloop
  endfacet
  facet normal  -0.000000e+000  4.226181e-001  9.063079e-001
    outer loop
      vertex  7.500000e+001  2.375000e+001  4.113621e+001
      vertex  1.070000e+002  1.624596e+001  4.463540e+001
      vertex  1.070000e+002  2.375000e+001  4.113621e+001
    endloop
  endfacet
  facet normal  0.000000e+000  5.735765e-001  8.191521e-001
    outer loop
      vertex  7.500000e+001  2.375000e+001  4.113621e+001
      vertex  1.070000e+002  2.375000e+001  4.113621e+001
      vertex  7.500000e+001  3.053241e+001  3.638711e+001
    endloop
  endfacet
  facet normal  -0.000000e+000  5.735765e-001  8.191521e-001
    outer loop
      vertex  7.500000e+001  3.053241e+001  3.638711e+001
      vertex  1.070000e+002  2.375000e+001  4.113621e+001
      vertex  1.070000e+002  3.053241e+001  3.638711e+001
    endloop
  endfacet
  facet normal  0.000000e+000  7.071068e-001  7.071068e-001
    outer loop
      vertex  7.500000e+001  3.053241e+001  3.638711e+001
      vertex  1.070000e+002  3.053241e+001  3.638711e+001
      vertex  7.500000e+001  3.638711e+001  3.053241e+001
    endloop
  endfacet
  facet normal  -0.000000e+000  7.071068e-001  7.071068e-001
    outer loop
      vertex  7.500000e+001  3.638711e+001  3.053241e+001
      vertex  1.070000e+002  3.053241e+001  3.638711e+001
      vertex  1.070000e+002  3.638711e+001  3.053241e+001
    endloop
  endfacet
  facet normal  0.000000e+000  8.191521e-001  5.735765e-001
    outer loop
      vertex  7.500000e+001  3.638711e+001  3.053241e+001
      vertex  1.070000e+002  3.638711e+001  3.053241e+001
      vertex  7.500000e+001  4.113621e+001  2.375000e+001
    endloop
  endfacet
  facet normal  -0.000000e+000  8.191521e-001  5.735765e-001
    outer loop
      vertex  7.500000e+001  4.113621e+001  2.375000e+001
      vertex  1.070000e+002  3.638711e+001  3.053241e+001
      vertex  1.070000e+002  4.113621e+001  2.375000e+001
    endloop
  endfacet
  facet normal  0.000000e+000  9.063079e-001  4.226181e-001
    outer loop
      vertex  7.500000e+001  4.113621e+001  2.375000e+001
      vertex  1.070000e+002  4.113621e+001  2.375000e+001
      vertex  7.500000e+001  4.463540e+001  1.624596e+001
    endloop
  endfacet
  facet normal  -0.000000e+000  9.063079e-001  4.226181e-001
    outer loop
      vertex  7.500000e+001  4.463540e+001  1.624596e+001
      vertex  1.070000e+002  4.113621e+001  2.375000e+001
      vertex  1.070000e+002  4.463540e+001  1.624596e+001
    endloop
  endfacet
  facet normal  0.000000e+000  9.659258e-001  2.588193e-001
    outer loop
      vertex  7.500000e+001  4.463540e+001  1.624596e+001
      vertex  1.070000e+002  4.463540e+001  1.624596e+001
      vertex  7.500000e+001  4.677837e+001  8.248288e+000
    endloop
  endfacet
  facet normal  -0.000000e+000  9.659258e-001  2.588193e-001
    outer loop
      vertex  7.500000e+001  4.677837e+001  8.248288e+000
      vertex  1.070000e+002  4.463540e+001  1.624596e+001
      vertex  1.070000e+002  4.677837e+001  8.248288e+000
    endloop
  endfacet
  facet normal  0.000000e+000  9.961947e-001  8.715555e-002
    outer loop
      vertex  7.500000e+001  4.677837e+001  8.248288e+000
      vertex  1.070000e+002  4.677837e+001  8.248288e+000
      vertex  1.070000e+002  4.750000e+001  0.000000e+000
    endloop
  endfacet
  facet normal -7.071050e-001  7.071046e-001  2.363555e-003
    outer loop
      vertex  6.286475e+001  8.816779e+000  1.200000e+002
      vertex  6.618322e+001  1.213525e+001  1.200000e+002
      vertex  6.479306e+001  1.099174e+001  4.621073e+001
    endloop
  endfacet
  facet normal -2.605937e-001  9.654483e-001 -5.860882e-004
    outer loop
      vertex  7.243353e+001  1.477881e+001  4.514241e+001
      vertex  6.978290e+001  1.406349e+001  4.537035e+001
      vertex  7.036475e+001  1.426585e+001  1.200000e+002
    endloop
  endfacet
  facet normal -1.564339e-001  9.876854e-001  2.444881e-003
    outer loop
      vertex  7.036475e+001  1.426585e+001  1.200000e+002
      vertex  7.500000e+001  1.500000e+001  1.200000e+002
      vertex  7.243353e+001  1.477881e+001  4.514241e+001
    endloop
  endfacet
  facet normal  6.393853e-001  7.688864e-001 -2.922945e-004
    outer loop
      vertex  8.553057e+001  1.068209e+001  4.628329e+001
      vertex  8.358130e+001  1.230290e+001  4.587907e+001
      vertex  8.381678e+001  1.213525e+001  1.200000e+002
    endloop
  endfacet
  facet normal  7.071047e-001  7.071043e-001  2.499972e-003
    outer loop
      vertex  8.381678e+001  1.213525e+001  1.200000e+002
      vertex  8.713525e+001  8.816779e+000  1.200000e+002
      vertex  8.553057e+001  1.068209e+001  4.628329e+001
    endloop
  endfacet
  facet normal -9.955178e-001  9.457457e-002  0.000000e+000
    outer loop
      vertex  6.000000e+001  8.498309e-015  4.750000e+001
      vertex  6.000000e+001  8.498309e-015  1.200000e+002
      vertex  6.026833e+001  2.824511e+000  4.741595e+001
    endloop
  endfacet
  facet normal -9.876854e-001  1.564343e-001  2.436144e-003
    outer loop
      vertex  6.026833e+001  2.824511e+000  4.741595e+001
      vertex  6.000000e+001  8.498309e-015  1.200000e+002
      vertex  6.073415e+001  4.635255e+000  1.200000e+002
    endloop
  endfacet
  facet normal -9.567457e-001  2.909231e-001 -1.117492e-003
    outer loop
      vertex  6.026833e+001  2.824511e+000  4.741595e+001
      vertex  6.073415e+001  4.635255e+000  1.200000e+002
      vertex  6.119080e+001  5.857127e+000  4.713750e+001
    endloop
  endfacet
  facet normal -8.742852e-001  4.854055e-001  2.660689e-003
    outer loop
      vertex  6.119080e+001  5.857127e+000  4.713750e+001
      vertex  6.073415e+001  4.635255e+000  1.200000e+002
      vertex  6.272072e+001  8.615062e+000  4.671221e+001
    endloop
  endfacet
  facet normal -8.910065e-001  4.539903e-001  5.014736e-004
    outer loop
      vertex  6.272072e+001  8.615062e+000  4.671221e+001
      vertex  6.073415e+001  4.635255e+000  1.200000e+002
      vertex  6.286475e+001  8.816779e+000  1.200000e+002
    endloop
  endfacet
  facet normal -7.537496e-001  6.571617e-001 -3.274775e-004
    outer loop
      vertex  6.272072e+001  8.615062e+000  4.671221e+001
      vertex  6.286475e+001  8.816779e+000  1.200000e+002
      vertex  6.479306e+001  1.099174e+001  4.621073e+001
    endloop
  endfacet
  facet normal -4.539901e-001  8.910061e-001  1.123571e-003
    outer loop
      vertex  7.036475e+001  1.426585e+001  1.200000e+002
      vertex  6.978290e+001  1.406349e+001  4.537035e+001
      vertex  6.618322e+001  1.213525e+001  1.200000e+002
    endloop
  endfacet
  facet normal -4.314820e-001  9.021181e-001  2.496333e-003
    outer loop
      vertex  6.618322e+001  1.213525e+001  1.200000e+002
      vertex  6.978290e+001  1.406349e+001  4.537035e+001
      vertex  6.731782e+001  1.288348e+001  4.571943e+001
    endloop
  endfacet
  facet normal -5.997657e-001  8.001750e-001 -1.100985e-003
    outer loop
      vertex  6.618322e+001  1.213525e+001  1.200000e+002
      vertex  6.731782e+001  1.288348e+001  4.571943e+001
      vertex  6.479306e+001  1.099174e+001  4.621073e+001
    endloop
  endfacet
  facet normal  1.564343e-001  9.876878e-001  1.077154e-003
    outer loop
      vertex  7.963525e+001  1.426585e+001  1.200000e+002
      vertex  7.907314e+001  1.443640e+001  4.525307e+001
      vertex  7.500000e+001  1.500000e+001  1.200000e+002
    endloop
  endfacet
  facet normal  1.911073e-001  9.815645e-001  3.012736e-003
    outer loop
      vertex  7.500000e+001  1.500000e+001  1.200000e+002
      vertex  7.907314e+001  1.443640e+001  4.525307e+001
      vertex  7.664608e+001  1.490941e+001  4.509944e+001
    endloop
  endfacet
  facet normal -3.100602e-002  9.995174e-001 -1.890334e-003
    outer loop
      vertex  7.500000e+001  1.500000e+001  1.200000e+002
      vertex  7.664608e+001  1.490941e+001  4.509944e+001
      vertex  7.243353e+001  1.477881e+001  4.514241e+001
    endloop
  endfacet
  facet normal  4.539903e-001  8.910065e-001  5.729072e-004
    outer loop
      vertex  8.381678e+001  1.213525e+001  1.200000e+002
      vertex  8.358130e+001  1.230290e+001  4.587907e+001
      vertex  7.963525e+001  1.426585e+001  1.200000e+002
    endloop
  endfacet
  facet normal  5.000863e-001  8.659678e-001  3.690064e-003
    outer loop
      vertex  7.963525e+001  1.426585e+001  1.200000e+002
      vertex  8.358130e+001  1.230290e+001  4.587907e+001
      vertex  8.138099e+001  1.357509e+001  4.551886e+001
    endloop
  endfacet
  facet normal  3.497013e-001  9.368611e-001 -4.922394e-004
    outer loop
      vertex  7.963525e+001  1.426585e+001  1.200000e+002
      vertex  8.138099e+001  1.357509e+001  4.551886e+001
      vertex  7.907314e+001  1.443640e+001  4.525307e+001
    endloop
  endfacet
  facet normal  8.910065e-001  4.539903e-001  4.948400e-004
    outer loop
      vertex  8.926585e+001  4.635255e+000  1.200000e+002
      vertex  8.918904e+001  4.865289e+000  4.725018e+001
      vertex  8.713525e+001  8.816779e+000  1.200000e+002
    endloop
  endfacet
  facet normal  9.020117e-001  4.317071e-001  2.015868e-003
    outer loop
      vertex  8.713525e+001  8.816779e+000  1.200000e+002
      vertex  8.918904e+001  4.865289e+000  4.725018e+001
      vertex  8.769331e+001  7.992485e+000  4.682275e+001
    endloop
  endfacet
  facet normal  7.794129e-001  6.265097e-001 -1.113399e-003
    outer loop
      vertex  8.713525e+001  8.816779e+000  1.200000e+002
      vertex  8.769331e+001  7.992485e+000  4.682275e+001
      vertex  8.553057e+001  1.068209e+001  4.628329e+001
    endloop
  endfacet
  facet normal  9.876883e-001  1.564348e-001  -0.000000e+000
    outer loop
      vertex  9.000000e+001  0.000000e+000  1.200000e+002
      vertex  9.000000e+001  0.000000e+000  4.750000e+001
      vertex  8.926585e+001  4.635255e+000  1.200000e+002
    endloop
  endfacet
  facet normal  9.965619e-001  8.271238e-002  4.803265e-003
    outer loop
      vertex  8.926585e+001  4.635255e+000  1.200000e+002
      vertex  9.000000e+001  0.000000e+000  4.750000e+001
      vertex  8.979537e+001  2.469194e+000  4.743578e+001
    endloop
  endfacet
  facet normal  9.694474e-001  2.452991e-001 -2.478536e-004
    outer loop
      vertex  8.926585e+001  4.635255e+000  1.200000e+002
      vertex  8.979537e+001  2.469194e+000  4.743578e+001
      vertex  8.918904e+001  4.865289e+000  4.725018e+001
    endloop
  endfacet
  facet normal  7.071051e-001 -7.071047e-001  2.345991e-003
    outer loop
      vertex  8.713525e+001 -8.816779e+000  1.200000e+002
      vertex  8.381678e+001 -1.213525e+001  1.200000e+002
      vertex  8.518227e+001 -1.101459e+001  4.620529e+001
    endloop
  endfacet
  facet normal  2.384728e-001 -9.711491e-001 -2.995069e-004
    outer loop
      vertex  7.723077e+001 -1.483320e+001  4.512457e+001
      vertex  7.989281e+001 -1.417957e+001  4.533420e+001
      vertex  7.963525e+001 -1.426585e+001  1.200000e+002
    endloop
  endfacet
  facet normal  1.564339e-001 -9.876853e-001  2.460318e-003
    outer loop
      vertex  7.963525e+001 -1.426585e+001  1.200000e+002
      vertex  7.500000e+001 -1.500000e+001  1.200000e+002
      vertex  7.723077e+001 -1.483320e+001  4.512457e+001
    endloop
  endfacet
  facet normal -6.163995e-001 -7.874326e-001 -1.246150e-003
    outer loop
      vertex  6.444490e+001 -1.065785e+001  4.628888e+001
      vertex  6.719323e+001 -1.280837e+001  4.574052e+001
      vertex  6.618322e+001 -1.213525e+001  1.200000e+002
    endloop
  endfacet
  facet normal -7.071047e-001 -7.071043e-001  2.502970e-003
    outer loop
      vertex  6.618322e+001 -1.213525e+001  1.200000e+002
      vertex  6.286475e+001 -8.816779e+000  1.200000e+002
      vertex  6.444490e+001 -1.065785e+001  4.628888e+001
    endloop
  endfacet
  facet normal  9.963419e-001 -8.545590e-002  0.000000e+000
    outer loop
      vertex  9.000000e+001  0.000000e+000  4.750000e+001
      vertex  9.000000e+001  0.000000e+000  1.200000e+002
      vertex  8.978092e+001 -2.554261e+000  4.743127e+001
    endloop
  endfacet
  facet normal  9.876851e-001 -1.564343e-001  2.524418e-003
    outer loop
      vertex  8.978092e+001 -2.554261e+000  4.743127e+001
      vertex  9.000000e+001  0.000000e+000  1.200000e+002
      vertex  8.926585e+001 -4.635255e+000  1.200000e+002
    endloop
  endfacet
  facet normal  9.619374e-001 -2.732681e-001 -1.008682e-003
    outer loop
      vertex  8.978092e+001 -2.554261e+000  4.743127e+001
      vertex  8.926585e+001 -4.635255e+000  1.200000e+002
      vertex  8.891531e+001 -5.600366e+000  4.716870e+001
    endloop
  endfacet
  facet normal  8.832222e-001 -4.689508e-001  1.963231e-003
    outer loop
      vertex  8.891531e+001 -5.600366e+000  4.716870e+001
      vertex  8.926585e+001 -4.635255e+000  1.200000e+002
      vertex  8.743844e+001 -8.383634e+000  4.675430e+001
    endloop
  endfacet
  facet normal  8.910061e-001 -4.539901e-001  1.003410e-003
    outer loop
      vertex  8.743844e+001 -8.383634e+000  4.675430e+001
      vertex  8.926585e+001 -4.635255e+000  1.200000e+002
      vertex  8.713525e+001 -8.816779e+000  1.200000e+002
    endloop
  endfacet
  facet normal  7.591785e-001 -6.508821e-001 -7.066011e-004
    outer loop
      vertex  8.743844e+001 -8.383634e+000  4.675430e+001
      vertex  8.713525e+001 -8.816779e+000  1.200000e+002
      vertex  8.518227e+001 -1.101459e+001  4.620529e+001
    endloop
  endfacet
  facet normal  4.539903e-001 -8.910065e-001  5.365254e-004
    outer loop
      vertex  7.963525e+001 -1.426585e+001  1.200000e+002
      vertex  7.989281e+001 -1.417957e+001  4.533420e+001
      vertex  8.381678e+001 -1.213525e+001  1.200000e+002
    endloop
  endfacet
  facet normal  4.104379e-001 -9.118823e-001  3.396940e-003
    outer loop
      vertex  8.381678e+001 -1.213525e+001  1.200000e+002
      vertex  7.989281e+001 -1.417957e+001  4.533420e+001
      vertex  8.238071e+001 -1.305852e+001  4.566974e+001
    endloop
  endfacet
  facet normal  5.895530e-001 -8.077286e-001 -1.357285e-003
    outer loop
      vertex  8.381678e+001 -1.213525e+001  1.200000e+002
      vertex  8.238071e+001 -1.305852e+001  4.566974e+001
      vertex  8.518227e+001 -1.101459e+001  4.620529e+001
    endloop
  endfacet
  facet normal -1.564341e-001 -9.876861e-001  2.139498e-003
    outer loop
      vertex  7.036475e+001 -1.426585e+001  1.200000e+002
      vertex  7.180916e+001 -1.465669e+001  4.518220e+001
      vertex  7.500000e+001 -1.500000e+001  1.200000e+002
    endloop
  endfacet
  facet normal -1.231386e-001 -9.923893e-001  6.979246e-004
    outer loop
      vertex  7.500000e+001 -1.500000e+001  1.200000e+002
      vertex  7.180916e+001 -1.465669e+001  4.518220e+001
      vertex  7.451107e+001 -1.499203e+001  4.507204e+001
    endloop
  endfacet
  facet normal  5.831052e-002 -9.982984e-001 -4.867195e-004
    outer loop
      vertex  7.500000e+001 -1.500000e+001  1.200000e+002
      vertex  7.451107e+001 -1.499203e+001  4.507204e+001
      vertex  7.723077e+001 -1.483320e+001  4.512457e+001
    endloop
  endfacet
  facet normal -4.539896e-001 -8.910050e-001  1.901616e-003
    outer loop
      vertex  6.618322e+001 -1.213525e+001  1.200000e+002
      vertex  6.719323e+001 -1.280837e+001  4.574052e+001
      vertex  7.036475e+001 -1.426585e+001  1.200000e+002
    endloop
  endfacet
  facet normal -4.476135e-001 -8.942258e-001  1.566089e-003
    outer loop
      vertex  7.036475e+001 -1.426585e+001  1.200000e+002
      vertex  6.719323e+001 -1.280837e+001  4.574052e+001
      vertex  6.941917e+001 -1.392316e+001  4.541360e+001
    endloop
  endfacet
  facet normal -2.934693e-001 -9.559683e-001 -6.717577e-004
    outer loop
      vertex  7.036475e+001 -1.426585e+001  1.200000e+002
      vertex  6.941917e+001 -1.392316e+001  4.541360e+001
      vertex  7.180916e+001 -1.465669e+001  4.518220e+001
    endloop
  endfacet
  facet normal -8.910056e-001 -4.539899e-001  1.489606e-003
    outer loop
      vertex  6.073415e+001 -4.635255e+000  1.200000e+002
      vertex  6.101720e+001 -5.429677e+000  4.718865e+001
      vertex  6.286475e+001 -8.816779e+000  1.200000e+002
    endloop
  endfacet
  facet normal -8.942917e-001 -4.474806e-001  1.875792e-003
    outer loop
      vertex  6.286475e+001 -8.816779e+000  1.200000e+002
      vertex  6.101720e+001 -5.429677e+000  4.718865e+001
      vertex  6.226755e+001 -7.929990e+000  4.683338e+001
    endloop
  endfacet
  facet normal -7.816731e-001 -6.236873e-001 -1.179060e-003
    outer loop
      vertex  6.286475e+001 -8.816779e+000  1.200000e+002
      vertex  6.226755e+001 -7.929990e+000  4.683338e+001
      vertex  6.444490e+001 -1.065785e+001  4.628888e+001
    endloop
  endfacet
  facet normal -9.876883e-001 -1.564348e-001  0.000000e+000
    outer loop
      vertex  6.000000e+001  8.498309e-015  1.200000e+002
      vertex  6.000000e+001  8.498309e-015  4.750000e+001
      vertex  6.073415e+001 -4.635255e+000  1.200000e+002
    endloop
  endfacet
  facet normal -9.958010e-001 -9.144611e-002  4.237172e-003
    outer loop
      vertex  6.073415e+001 -4.635255e+000  1.200000e+002
      vertex  6.000000e+001  8.498309e-015  4.750000e+001
      vertex  6.025021e+001 -2.728331e+000  4.742158e+001
    endloop
  endfacet
  facet normal -9.619933e-001 -2.730722e-001 -7.602929e-004
    outer loop
      vertex  6.073415e+001 -4.635255e+000  1.200000e+002
      vertex  6.025021e+001 -2.728331e+000  4.742158e+001
      vertex  6.101720e+001 -5.429677e+000  4.718865e+001
    endloop
  endfacet
  facet normal  0.000000e+000  0.000000e+000  1.000000e+000
    outer loop
      vertex  7.036475e+001  1.426585e+001  1.200000e+002
      vertex  7.963525e+001  1.426585e+001  1.200000e+002
      vertex  7.500000e+001  1.500000e+001  1.200000e+002
    endloop
  endfacet
  facet normal  -0.000000e+000  0.000000e+000  1.000000e+000
    outer loop
      vertex  7.963525e+001  1.426585e+001  1.200000e+002
      vertex  7.036475e+001  1.426585e+001  1.200000e+002
      vertex  8.381678e+001  1.213525e+001  1.200000e+002
    endloop
  endfacet
  facet normal  0.000000e+000  0.000000e+000  1.000000e+000
    outer loop
      vertex  8.381678e+001  1.213525e+001  1.200000e+002
      vertex  7.036475e+001  1.426585e+001  1.200000e+002
      vertex  6.618322e+001  1.213525e+001  1.200000e+002
    endloop
  endfacet
  facet normal  -0.000000e+000  0.000000e+000  9.999999e-001
    outer loop
      vertex  8.381678e+001  1.213525e+001  1.200000e+002
      vertex  6.618322e+001  1.213525e+001  1.200000e+002
      vertex  8.713525e+001  8.816779e+000  1.200000e+002
    endloop
  endfacet
  facet normal  0.000000e+000  0.000000e+000  1.000000e+000
    outer loop
      vertex  8.713525e+001  8.816779e+000  1.200000e+002
      vertex  6.618322e+001  1.213525e+001  1.200000e+002
      vertex  6.286475e+001  8.816779e+000  1.200000e+002
    endloop
  endfacet
  facet normal  -0.000000e+000  0.000000e+000  1.000000e+000
    outer loop
      vertex  8.713525e+001  8.816779e+000  1.200000e+002
      vertex  6.286475e+001  8.816779e+000  1.200000e+002
      vertex  8.926585e+001  4.635255e+000  1.200000e+002
    endloop
  endfacet
  facet normal  0.000000e+000  0.000000e+000  1.000000e+000
    outer loop
      vertex  8.926585e+001  4.635255e+000  1.200000e+002
      vertex  6.286475e+001  8.816779e+000  1.200000e+002
      vertex  6.073415e+001  4.635255e+000  1.200000e+002
    endloop
  endfacet
  facet normal  -0.000000e+000  0.000000e+000  1.000000e+000
    outer loop
      vertex  8.926585e+001  4.635255e+000  1.200000e+002
      vertex  6.073415e+001  4.635255e+000  1.200000e+002
      vertex  9.000000e+001  0.000000e+000  1.200000e+002
    endloop
  endfacet
  facet normal  0.000000e+000  0.000000e+000  1.000000e+000
    outer loop
      vertex  9.000000e+001  0.000000e+000  1.200000e+002
      vertex  6.073415e+001  4.635255e+000  1.200000e+002
      vertex  6.000000e+001  8.498309e-015  1.200000e+002
    endloop
  endfacet
  facet normal  0.000000e+000  0.000000e+000  1.000000e+000
    outer loop
      vertex  9.000000e+001  0.000000e+000  1.200000e+002
      vertex  6.000000e+001  8.498309e-015  1.200000e+002
      vertex  8.926585e+001 -4.635255e+000  1.200000e+002
    endloop
  endfacet
  facet normal  0.000000e+000  0.000000e+000  1.000000e+000
    outer loop
      vertex  8.926585e+001 -4.635255e+000  1.200000e+002
      vertex  6.000000e+001  8.498309e-015  1.200000e+002
      vertex  6.073415e+001 -4.635255e+000  1.200000e+002
    endloop
  endfacet
  facet normal  -0.000000e+000  0.000000e+000  1.000000e+000
    outer loop
      vertex  8.926585e+001 -4.635255e+000  1.200000e+002
      vertex  6.073415e+001 -4.635255e+000  1.200000e+002
      vertex  8.713525e+001 -8.816779e+000  1.200000e+002
    endloop
  endfacet
  facet normal  0.000000e+000  0.000000e+000  1.000000e+000
    outer loop
      vertex  8.713525e+001 -8.816779e+000  1.200000e+002
      vertex  6.073415e+001 -4.635255e+000  1.200000e+002
      vertex  6.286475e+001 -8.816779e+000  1.200000e+002
    endloop
  endfacet
  facet normal  -0.000000e+000  0.000000e+000  1.000000e+000
    outer loop
      vertex  8.713525e+001 -8.816779e+000  1.200000e+002
      vertex  6.286475e+001 -8.816779e+000  1.200000e+002
      vertex  8.381678e+001 -1.213525e+001  1.200000e+002
    endloop
  endfacet
  facet normal  0.000000e+000  0.000000e+000  9.999999e-001
    outer loop
      vertex  8.381678e+001 -1.213525e+001  1.200000e+002
      vertex  6.286475e+001 -8.816779e+000  1.200000e+002
      vertex  6.618322e+001 -1.213525e+001  1.200000e+002
    endloop
  endfacet
  facet normal  -0.000000e+000  0.000000e+000  1.000000e+000
    outer loop
      vertex  8.381678e+001 -1.213525e+001  1.200000e+002
      vertex  6.618322e+001 -1.213525e+001  1.200000e+002
      vertex  7.963525e+001 -1.426585e+001  1.200000e+002
    endloop
  endfacet
  facet normal  0.000000e+000  0.000000e+000  1.000000e+000
    outer loop
      vertex  7.963525e+001 -1.426585e+001  1.200000e+002
      vertex  6.618322e+001 -1.213525e+001  1.200000e+002
      vertex  7.036475e+001 -1.426585e+001  1.200000e+002
    endloop
  endfacet
  facet normal  -0.000000e+000  0.000000e+000  1.000000e+000
    outer loop
      vertex  7.963525e+001 -1.426585e+001  1.200000e+002
      vertex  7.036475e+001 -1.426585e+001  1.200000e+002
      vertex  7.500000e+001 -1.500000e+001  1.200000e+002
    endloop
  endfacet
  facet normal  1.000000e+000  -0.000000e+000  0.000000e+000
    outer loop
      vertex  1.070000e+002 -1.679113e+001 -4.930320e+000
      vertex  1.070000e+002 -4.677837e+001 -8.248288e+000
      vertex  1.070000e+002 -1.472194e+001 -9.461214e+000
    endloop
  endfacet
  facet normal  9.999999e-001  0.000000e+000  0.000000e+000
    outer loop
      vertex  1.070000e+002 -4.113621e+001  2.375000e+001
      vertex  1.070000e+002 -8.248288e+000  4.677837e+001
      vertex  1.070000e+002 -1.624596e+001  4.463540e+001
    endloop
  endfacet
  facet normal  1.000000e+000  0.000000e+000  0.000000e+000
    outer loop
      vertex  1.070000e+002 -4.113621e+001  2.375000e+001
      vertex  1.070000e+002 -1.624596e+001  4.463540e+001
      vertex  1.070000e+002 -2.375000e+001  4.113621e+001
    endloop
  endfacet
  facet normal  1.000000e+000  0.000000e+000  0.000000e+000
    outer loop
      vertex  1.070000e+002 -4.113621e+001  2.375000e+001
      vertex  1.070000e+002 -2.375000e+001  4.113621e+001
      vertex  1.070000e+002 -3.053241e+001  3.638711e+001
    endloop
  endfacet
  facet normal  1.000000e+000  0.000000e+000  0.000000e+000
    outer loop
      vertex  1.070000e+002 -4.113621e+001  2.375000e+001
      vertex  1.070000e+002 -3.053241e+001  3.638711e+001
      vertex  1.070000e+002 -3.638711e+001  3.053241e+001
    endloop
  endfacet
  facet normal  1.000000e+000  0.000000e+000  -0.000000e+000
    outer loop
      vertex  1.070000e+002  2.490510e+000  1.732187e+001
      vertex  1.070000e+002  7.269763e+000  1.591856e+001
      vertex  1.070000e+002  4.463540e+001  1.624596e+001
    endloop
  endfacet
  facet normal  1.000000e+000  0.000000e+000  0.000000e+000
    outer loop
      vertex  1.070000e+002  2.490510e+000  1.732187e+001
      vertex  1.070000e+002  4.463540e+001  1.624596e+001
      vertex  1.070000e+002  4.113621e+001  2.375000e+001
    endloop
  endfacet
  facet normal  1.000000e+000  0.000000e+000  0.000000e+000
    outer loop
      vertex  1.070000e+002  2.490510e+000  1.732187e+001
      vertex  1.070000e+002  4.113621e+001  2.375000e+001
      vertex  1.070000e+002  3.638711e+001  3.053241e+001
    endloop
  endfacet
  facet normal  1.000000e+000  0.000000e+000  0.000000e+000
    outer loop
      vertex  1.070000e+002  2.490510e+000  1.732187e+001
      vertex  1.070000e+002  3.638711e+001  3.053241e+001
      vertex  1.070000e+002  3.053241e+001  3.638711e+001
    endloop
  endfacet
  facet normal  1.000000e+000  0.000000e+000  0.000000e+000
    outer loop
      vertex  1.070000e+002  2.490510e+000  1.732187e+001
      vertex  1.070000e+002  3.053241e+001  3.638711e+001
      vertex  1.070000e+002  2.375000e+001  4.113621e+001
    endloop
  endfacet
  facet normal  1.000000e+000  0.000000e+000  0.000000e+000
    outer loop
      vertex  1.070000e+002  2.490510e+000  1.732187e+001
      vertex  1.070000e+002  2.375000e+001  4.113621e+001
      vertex  1.070000e+002  1.624596e+001  4.463540e+001
    endloop
  endfacet
  facet normal  1.000000e+000  0.000000e+000  0.000000e+000
    outer loop
      vertex  1.070000e+002  2.490510e+000  1.732187e+001
      vertex  1.070000e+002  1.624596e+001  4.463540e+001
      vertex  1.070000e+002  8.248288e+000  4.677837e+001
    endloop
  endfacet
  facet normal  1.000000e+000  0.000000e+000  0.000000e+000
    outer loop
      vertex  1.070000e+002 -4.677837e+001  8.248288e+000
      vertex  1.070000e+002 -4.750000e+001  5.817072e-015
      vertex  1.070000e+002 -1.679113e+001  4.930320e+000
    endloop
  endfacet
  facet normal  1.000000e+000  0.000000e+000  -0.000000e+000
    outer loop
      vertex  1.070000e+002 -4.677837e+001  8.248288e+000
      vertex  1.070000e+002 -1.679113e+001  4.930320e+000
      vertex  1.070000e+002 -1.472194e+001  9.461214e+000
    endloop
  endfacet
  facet normal  1.000000e+000  0.000000e+000  -0.000000e+000
    outer loop
      vertex  1.070000e+002 -4.677837e+001  8.248288e+000
      vertex  1.070000e+002 -1.472194e+001  9.461214e+000
      vertex  1.070000e+002 -1.146006e+001  1.322562e+001
    endloop
  endfacet
  facet normal  1.000000e+000  0.000000e+000  -0.000000e+000
    outer loop
      vertex  1.070000e+002 -4.677837e+001  8.248288e+000
      vertex  1.070000e+002 -1.146006e+001  1.322562e+001
      vertex  1.070000e+002 -7.269763e+000  1.591856e+001
    endloop
  endfacet
  facet normal  1.000000e+000  0.000000e+000  0.000000e+000
    outer loop
      vertex  1.070000e+002 -4.677837e+001  8.248288e+000
      vertex  1.070000e+002 -7.269763e+000  1.591856e+001
      vertex  1.070000e+002 -4.463540e+001  1.624596e+001
    endloop
  endfacet
  facet normal  1.000000e+000  0.000000e+000  -0.000000e+000
    outer loop
      vertex  1.070000e+002 -4.463540e+001 -1.624596e+001
      vertex  1.070000e+002 -4.113621e+001 -2.375000e+001
      vertex  1.070000e+002 -2.490510e+000 -1.732187e+001
    endloop
  endfacet
  facet normal  9.999999e-001  0.000000e+000  0.000000e+000
    outer loop
      vertex  1.070000e+002 -4.463540e+001 -1.624596e+001
      vertex  1.070000e+002 -2.490510e+000 -1.732187e+001
      vertex  1.070000e+002 -7.269763e+000 -1.591856e+001
    endloop
  endfacet
  facet normal  9.999999e-001  0.000000e+000  0.000000e+000
    outer loop
      vertex  1.070000e+002 -4.463540e+001 -1.624596e+001
      vertex  1.070000e+002 -7.269763e+000 -1.591856e+001
      vertex  1.070000e+002 -1.146006e+001 -1.322562e+001
    endloop
  endfacet
  facet normal  9.999999e-001  0.000000e+000  0.000000e+000
    outer loop
      vertex  1.070000e+002 -4.463540e+001 -1.624596e+001
      vertex  1.070000e+002 -1.146006e+001 -1.322562e+001
      vertex  1.070000e+002 -1.472194e+001 -9.461214e+000
    endloop
  endfacet
  facet normal  1.000000e+000  0.000000e+000  0.000000e+000
    outer loop
      vertex  1.070000e+002 -4.463540e+001 -1.624596e+001
      vertex  1.070000e+002 -1.472194e+001 -9.461214e+000
      vertex  1.070000e+002 -4.677837e+001 -8.248288e+000
    endloop
  endfacet
  facet normal  1.000000e+000  0.000000e+000  -0.000000e+000
    outer loop
      vertex  1.070000e+002 -8.725608e-015 -4.750000e+001
      vertex  1.070000e+002  8.248288e+000 -4.677837e+001
      vertex  1.070000e+002  1.624596e+001 -4.463540e+001
    endloop
  endfacet
  facet normal  1.000000e+000  0.000000e+000  -0.000000e+000
    outer loop
      vertex  1.070000e+002 -8.725608e-015 -4.750000e+001
      vertex  1.070000e+002  1.624596e+001 -4.463540e+001
      vertex  1.070000e+002  2.375000e+001 -4.113621e+001
    endloop
  endfacet
  facet normal  1.000000e+000  0.000000e+000  -0.000000e+000
    outer loop
      vertex  1.070000e+002 -8.725608e-015 -4.750000e+001
      vertex  1.070000e+002  2.375000e+001 -4.113621e+001
      vertex  1.070000e+002  3.053241e+001 -3.638711e+001
    endloop
  endfacet
  facet normal  9.999999e-001  0.000000e+000  -0.000000e+000
    outer loop
      vertex  1.070000e+002 -8.725608e-015 -4.750000e+001
      vertex  1.070000e+002  3.053241e+001 -3.638711e+001
      vertex  1.070000e+002  3.638711e+001 -3.053241e+001
    endloop
  endfacet
  facet normal  1.000000e+000  0.000000e+000  -0.000000e+000
    outer loop
      vertex  1.070000e+002 -8.725608e-015 -4.750000e+001
      vertex  1.070000e+002  3.638711e+001 -3.053241e+001
      vertex  1.070000e+002  4.113621e+001 -2.375000e+001
    endloop
  endfacet
  facet normal  1.000000e+000  0.000000e+000  0.000000e+000
    outer loop
      vertex  1.070000e+002 -8.725608e-015 -4.750000e+001
      vertex  1.070000e+002  4.113621e+001 -2.375000e+001
      vertex  1.070000e+002  2.490510e+000 -1.732187e+001
    endloop
  endfacet
  facet normal  1.000000e+000  0.000000e+000  0.000000e+000
    outer loop
      vertex  1.070000e+002 -8.725608e-015 -4.750000e+001
      vertex  1.070000e+002  2.490510e+000 -1.732187e+001
      vertex  1.070000e+002 -2.490510e+000 -1.732187e+001
    endloop
  endfacet
  facet normal  1.000000e+000  0.000000e+000  0.000000e+000
    outer loop
      vertex  1.070000e+002 -8.725608e-015 -4.750000e+001
      vertex  1.070000e+002 -2.490510e+000 -1.732187e+001
      vertex  1.070000e+002 -4.113621e+001 -2.375000e+001
    endloop
  endfacet
  facet normal  1.000000e+000  0.000000e+000  0.000000e+000
    outer loop
      vertex  1.070000e+002 -8.725608e-015 -4.750000e+001
      vertex  1.070000e+002 -4.113621e+001 -2.375000e+001
      vertex  1.070000e+002 -3.638711e+001 -3.053241e+001
    endloop
  endfacet
  facet normal  9.999999e-001  0.000000e+000  0.000000e+000
    outer loop
      vertex  1.070000e+002 -8.725608e-015 -4.750000e+001
      vertex  1.070000e+002 -3.638711e+001 -3.053241e+001
      vertex  1.070000e+002 -3.053241e+001 -3.638711e+001
    endloop
  endfacet
  facet normal  1.000000e+000  0.000000e+000  0.000000e+000
    outer loop
      vertex  1.070000e+002 -8.725608e-015 -4.750000e+001
      vertex  1.070000e+002 -3.053241e+001 -3.638711e+001
      vertex  1.070000e+002 -2.375000e+001 -4.113621e+001
    endloop
  endfacet
  facet normal  1.000000e+000  0.000000e+000  0.000000e+000
    outer loop
      vertex  1.070000e+002 -8.725608e-015 -4.750000e+001
      vertex  1.070000e+002 -2.375000e+001 -4.113621e+001
      vertex  1.070000e+002 -1.624596e+001 -4.463540e+001
    endloop
  endfacet
  facet normal  1.000000e+000  0.000000e+000  0.000000e+000
    outer loop
      vertex  1.070000e+002 -8.725608e-015 -4.750000e+001
      vertex  1.070000e+002 -1.624596e+001 -4.463540e+001
      vertex  1.070000e+002 -8.248288e+000 -4.677837e+001
    endloop
  endfacet
  facet normal  1.000000e+000  0.000000e+000  0.000000e+000
    outer loop
      vertex  1.070000e+002  2.490510e+000  1.732187e+001
      vertex  1.070000e+002  8.248288e+000  4.677837e+001
      vertex  1.070000e+002 -2.490510e+000  1.732187e+001
    endloop
  endfacet
  facet normal  9.999999e-001  0.000000e+000  0.000000e+000
    outer loop
      vertex  1.070000e+002 -2.490510e+000  1.732187e+001
      vertex  1.070000e+002  8.248288e+000  4.677837e+001
      vertex  1.070000e+002  2.908536e-015  4.750000e+001
    endloop
  endfacet
  facet normal  1.000000e+000  0.000000e+000  0.000000e+000
    outer loop
      vertex  1.070000e+002 -2.490510e+000  1.732187e+001
      vertex  1.070000e+002  2.908536e-015  4.750000e+001
      vertex  1.070000e+002 -4.113621e+001  2.375000e+001
    endloop
  endfacet
  facet normal  1.000000e+000  0.000000e+000  0.000000e+000
    outer loop
      vertex  1.070000e+002 -4.113621e+001  2.375000e+001
      vertex  1.070000e+002  2.908536e-015  4.750000e+001
      vertex  1.070000e+002 -8.248288e+000  4.677837e+001
    endloop
  endfacet
  facet normal  9.999999e-001  0.000000e+000  0.000000e+000
    outer loop
      vertex  1.070000e+002 -7.269763e+000  1.591856e+001
      vertex  1.070000e+002 -2.490510e+000  1.732187e+001
      vertex  1.070000e+002 -4.463540e+001  1.624596e+001
    endloop
  endfacet
  facet normal  1.000000e+000  0.000000e+000  0.000000e+000
    outer loop
      vertex  1.070000e+002 -4.463540e+001  1.624596e+001
      vertex  1.070000e+002 -2.490510e+000  1.732187e+001
      vertex  1.070000e+002 -4.113621e+001  2.375000e+001
    endloop
  endfacet
  facet normal  9.999999e-001  0.000000e+000  0.000000e+000
    outer loop
      vertex  1.070000e+002 -4.677837e+001 -8.248288e+000
      vertex  1.070000e+002 -1.679113e+001 -4.930320e+000
      vertex  1.070000e+002 -4.750000e+001  5.817072e-015
    endloop
  endfacet
  facet normal  1.000000e+000  0.000000e+000  0.000000e+000
    outer loop
      vertex  1.070000e+002 -4.750000e+001  5.817072e-015
      vertex  1.070000e+002 -1.679113e+001 -4.930320e+000
      vertex  1.070000e+002 -1.750000e+001  2.143132e-015
    endloop
  endfacet
  facet normal  1.000000e+000  0.000000e+000  -0.000000e+000
    outer loop
      vertex  1.070000e+002 -4.750000e+001  5.817072e-015
      vertex  1.070000e+002 -1.750000e+001  2.143132e-015
      vertex  1.070000e+002 -1.679113e+001  4.930320e+000
    endloop
  endfacet
  facet normal  1.000000e+000  -0.000000e+000  0.000000e+000
    outer loop
      vertex  1.070000e+002  4.463540e+001  1.624596e+001
      vertex  1.070000e+002  7.269763e+000  1.591856e+001
      vertex  1.070000e+002  4.677837e+001  8.248288e+000
    endloop
  endfacet
  facet normal  1.000000e+000  0.000000e+000  0.000000e+000
    outer loop
      vertex  1.070000e+002  4.677837e+001  8.248288e+000
      vertex  1.070000e+002  7.269763e+000  1.591856e+001
      vertex  1.070000e+002  1.146006e+001  1.322562e+001
    endloop
  endfacet
  facet normal  1.000000e+000  0.000000e+000  0.000000e+000
    outer loop
      vertex  1.070000e+002  4.677837e+001  8.248288e+000
      vertex  1.070000e+002  1.146006e+001  1.322562e+001
      vertex  1.070000e+002  1.472194e+001  9.461214e+000
    endloop
  endfacet
  facet normal  1.000000e+000  0.000000e+000  0.000000e+000
    outer loop
      vertex  1.070000e+002  4.677837e+001  8.248288e+000
      vertex  1.070000e+002  1.472194e+001  9.461214e+000
      vertex  1.070000e+002  4.750000e+001  0.000000e+000
    endloop
  endfacet
  facet normal  1.000000e+000  0.000000e+000  0.000000e+000
    outer loop
      vertex  1.070000e+002  4.750000e+001  0.000000e+000
      vertex  1.070000e+002  1.472194e+001  9.461214e+000
      vertex  1.070000e+002  1.679113e+001  4.930320e+000
    endloop
  endfacet
  facet normal  1.000000e+000  0.000000e+000  0.000000e+000
    outer loop
      vertex  1.070000e+002  4.750000e+001  0.000000e+000
      vertex  1.070000e+002  1.679113e+001  4.930320e+000
      vertex  1.070000e+002  1.750000e+001  0.000000e+000
    endloop
  endfacet
  facet normal  1.000000e+000  -0.000000e+000  0.000000e+000
    outer loop
      vertex  1.070000e+002  4.750000e+001  0.000000e+000
      vertex  1.070000e+002  1.750000e+001  0.000000e+000
      vertex  1.070000e+002  4.677837e+001 -8.248288e+000
    endloop
  endfacet
  facet normal  1.000000e+000  0.000000e+000  0.000000e+000
    outer loop
      vertex  1.070000e+002  4.677837e+001 -8.248288e+000
      vertex  1.070000e+002  1.750000e+001  0.000000e+000
      vertex  1.070000e+002  1.679113e+001 -4.930320e+000
    endloop
  endfacet
  facet normal  1.000000e+000  0.000000e+000  0.000000e+000
    outer loop
      vertex  1.070000e+002  4.677837e+001 -8.248288e+000
      vertex  1.070000e+002  1.679113e+001 -4.930320e+000
      vertex  1.070000e+002  1.472194e+001 -9.461214e+000
    endloop
  endfacet
  facet normal  1.000000e+000  -0.000000e+000  0.000000e+000
    outer loop
      vertex  1.070000e+002  4.677837e+001 -8.248288e+000
      vertex  1.070000e+002  1.472194e+001 -9.461214e+000
      vertex  1.070000e+002  4.463540e+001 -1.624596e+001
    endloop
  endfacet
  facet normal  9.999999e-001  0.000000e+000  0.000000e+000
    outer loop
      vertex  1.070000e+002  4.463540e+001 -1.624596e+001
      vertex  1.070000e+002  1.472194e+001 -9.461214e+000
      vertex  1.070000e+002  1.146006e+001 -1.322562e+001
    endloop
  endfacet
  facet normal  9.999999e-001  0.000000e+000  0.000000e+000
    outer loop
      vertex  1.070000e+002  4.463540e+001 -1.624596e+001
      vertex  1.070000e+002  1.146006e+001 -1.322562e+001
      vertex  1.070000e+002  7.269763e+000 -1.591856e+001
    endloop
  endfacet
  facet normal  9.999999e-001  0.000000e+000  0.000000e+000
    outer loop
      vertex  1.070000e+002  2.490510e+000 -1.732187e+001
      vertex  1.070000e+002  4.113621e+001 -2.375000e+001
      vertex  1.070000e+002  7.269763e+000 -1.591856e+001
    endloop
  endfacet
  facet normal  1.000000e+000  0.000000e+000  0.000000e+000
    outer loop
      vertex  1.070000e+002  7.269763e+000 -1.591856e+001
      vertex  1.070000e+002  4.113621e+001 -2.375000e+001
      vertex  1.070000e+002  4.463540e+001 -1.624596e+001
    endloop
  endfacet
  facet normal -1.000000e+000  0.000000e+000  0.000000e+000
    outer loop
      vertex  4.300000e+001 -1.472194e+001 -9.461214e+000
      vertex  4.300000e+001 -4.677837e+001 -8.248288e+000
      vertex  4.300000e+001 -1.679113e+001 -4.930320e+000
    endloop
  endfacet
  facet normal -1.000000e+000  0.000000e+000  -0.000000e+000
    outer loop
      vertex  4.300000e+001 -4.113621e+001  2.375000e+001
      vertex  4.300000e+001 -3.638711e+001  3.053241e+001
      vertex  4.300000e+001 -3.053241e+001  3.638711e+001
    endloop
  endfacet
  facet normal -1.000000e+000  0.000000e+000  -0.000000e+000
    outer loop
      vertex  4.300000e+001 -4.113621e+001  2.375000e+001
      vertex  4.300000e+001 -3.053241e+001  3.638711e+001
      vertex  4.300000e+001 -2.375000e+001  4.113621e+001
    endloop
  endfacet
  facet normal -1.000000e+000  0.000000e+000  -0.000000e+000
    outer loop
      vertex  4.300000e+001 -4.113621e+001  2.375000e+001
      vertex  4.300000e+001 -2.375000e+001  4.113621e+001
      vertex  4.300000e+001 -1.624596e+001  4.463540e+001
    endloop
  endfacet
  facet normal -1.000000e+000  0.000000e+000  -0.000000e+000
    outer loop
      vertex  4.300000e+001 -4.113621e+001  2.375000e+001
      vertex  4.300000e+001 -1.624596e+001  4.463540e+001
      vertex  4.300000e+001 -8.248288e+000  4.677837e+001
    endloop
  endfacet
  facet normal -1.000000e+000  0.000000e+000  -0.000000e+000
    outer loop
      vertex  4.300000e+001  2.490510e+000  1.732187e+001
      vertex  4.300000e+001  8.248288e+000  4.677837e+001
      vertex  4.300000e+001  1.624596e+001  4.463540e+001
    endloop
  endfacet
  facet normal -1.000000e+000  0.000000e+000  -0.000000e+000
    outer loop
      vertex  4.300000e+001  2.490510e+000  1.732187e+001
      vertex  4.300000e+001  1.624596e+001  4.463540e+001
      vertex  4.300000e+001  2.375000e+001  4.113621e+001
    endloop
  endfacet
  facet normal -1.000000e+000  0.000000e+000  -0.000000e+000
    outer loop
      vertex  4.300000e+001  2.490510e+000  1.732187e+001
      vertex  4.300000e+001  2.375000e+001  4.113621e+001
      vertex  4.300000e+001  3.053241e+001  3.638711e+001
    endloop
  endfacet
  facet normal -1.000000e+000  0.000000e+000  -0.000000e+000
    outer loop
      vertex  4.300000e+001  2.490510e+000  1.732187e+001
      vertex  4.300000e+001  3.053241e+001  3.638711e+001
      vertex  4.300000e+001  3.638711e+001  3.053241e+001
    endloop
  endfacet
  facet normal -1.000000e+000  0.000000e+000  -0.000000e+000
    outer loop
      vertex  4.300000e+001  2.490510e+000  1.732187e+001
      vertex  4.300000e+001  3.638711e+001  3.053241e+001
      vertex  4.300000e+001  4.113621e+001  2.375000e+001
    endloop
  endfacet
  facet normal -1.000000e+000  0.000000e+000  -0.000000e+000
    outer loop
      vertex  4.300000e+001  2.490510e+000  1.732187e+001
      vertex  4.300000e+001  4.113621e+001  2.375000e+001
      vertex  4.300000e+001  4.463540e+001  1.624596e+001
    endloop
  endfacet
  facet normal -1.000000e+000  -0.000000e+000  0.000000e+000
    outer loop
      vertex  4.300000e+001  2.490510e+000  1.732187e+001
      vertex  4.300000e+001  4.463540e+001  1.624596e+001
      vertex  4.300000e+001  7.269763e+000  1.591856e+001
    endloop
  endfacet
  facet normal -1.000000e+000  0.000000e+000  -0.000000e+000
    outer loop
      vertex  4.300000e+001 -4.677837e+001  8.248288e+000
      vertex  4.300000e+001 -4.463540e+001  1.624596e+001
      vertex  4.300000e+001 -7.269763e+000  1.591856e+001
    endloop
  endfacet
  facet normal -1.000000e+000  0.000000e+000  0.000000e+000
    outer loop
      vertex  4.300000e+001 -4.677837e+001  8.248288e+000
      vertex  4.300000e+001 -7.269763e+000  1.591856e+001
      vertex  4.300000e+001 -1.146006e+001  1.322562e+001
    endloop
  endfacet
  facet normal -1.000000e+000  0.000000e+000  0.000000e+000
    outer loop
      vertex  4.300000e+001 -4.677837e+001  8.248288e+000
      vertex  4.300000e+001 -1.146006e+001  1.322562e+001
      vertex  4.300000e+001 -1.472194e+001  9.461214e+000
    endloop
  endfacet
  facet normal -1.000000e+000  0.000000e+000  0.000000e+000
    outer loop
      vertex  4.300000e+001 -4.677837e+001  8.248288e+000
      vertex  4.300000e+001 -1.472194e+001  9.461214e+000
      vertex  4.300000e+001 -1.679113e+001  4.930320e+000
    endloop
  endfacet
  facet normal -9.999999e-001  -0.000000e+000  0.000000e+000
    outer loop
      vertex  4.300000e+001 -4.677837e+001  8.248288e+000
      vertex  4.300000e+001 -1.679113e+001  4.930320e+000
      vertex  4.300000e+001 -4.750000e+001  5.817072e-015
    endloop
  endfacet
  facet normal -9.999999e-001  0.000000e+000  0.000000e+000
    outer loop
      vertex  4.300000e+001 -4.463540e+001 -1.624596e+001
      vertex  4.300000e+001 -4.677837e+001 -8.248288e+000
      vertex  4.300000e+001 -1.472194e+001 -9.461214e+000
    endloop
  endfacet
  facet normal -1.000000e+000  0.000000e+000  -0.000000e+000
    outer loop
      vertex  4.300000e+001 -4.463540e+001 -1.624596e+001
      vertex  4.300000e+001 -1.472194e+001 -9.461214e+000
      vertex  4.300000e+001 -1.146006e+001 -1.322562e+001
    endloop
  endfacet
  facet normal -9.999999e-001  0.000000e+000  -0.000000e+000
    outer loop
      vertex  4.300000e+001 -4.463540e+001 -1.624596e+001
      vertex  4.300000e+001 -1.146006e+001 -1.322562e+001
      vertex  4.300000e+001 -7.269763e+000 -1.591856e+001
    endloop
  endfacet
  facet normal -1.000000e+000  0.000000e+000  -0.000000e+000
    outer loop
      vertex  4.300000e+001 -4.463540e+001 -1.624596e+001
      vertex  4.300000e+001 -7.269763e+000 -1.591856e+001
      vertex  4.300000e+001 -2.490510e+000 -1.732187e+001
    endloop
  endfacet
  facet normal -1.000000e+000  -0.000000e+000  0.000000e+000
    outer loop
      vertex  4.300000e+001 -4.463540e+001 -1.624596e+001
      vertex  4.300000e+001 -2.490510e+000 -1.732187e+001
      vertex  4.300000e+001 -4.113621e+001 -2.375000e+001
    endloop
  endfacet
  facet normal -1.000000e+000  0.000000e+000  0.000000e+000
    outer loop
      vertex  4.300000e+001 -8.725608e-015 -4.750000e+001
      vertex  4.300000e+001 -8.248288e+000 -4.677837e+001
      vertex  4.300000e+001 -1.624596e+001 -4.463540e+001
    endloop
  endfacet
  facet normal -1.000000e+000  0.000000e+000  0.000000e+000
    outer loop
      vertex  4.300000e+001 -8.725608e-015 -4.750000e+001
      vertex  4.300000e+001 -1.624596e+001 -4.463540e+001
      vertex  4.300000e+001 -2.375000e+001 -4.113621e+001
    endloop
  endfacet
  facet normal -1.000000e+000  0.000000e+000  0.000000e+000
    outer loop
      vertex  4.300000e+001 -8.725608e-015 -4.750000e+001
      vertex  4.300000e+001 -2.375000e+001 -4.113621e+001
      vertex  4.300000e+001 -3.053241e+001 -3.638711e+001
    endloop
  endfacet
  facet normal -9.999999e-001  0.000000e+000  0.000000e+000
    outer loop
      vertex  4.300000e+001 -8.725608e-015 -4.750000e+001
      vertex  4.300000e+001 -3.053241e+001 -3.638711e+001
      vertex  4.300000e+001 -3.638711e+001 -3.053241e+001
    endloop
  endfacet
  facet normal -1.000000e+000  0.000000e+000  0.000000e+000
    outer loop
      vertex  4.300000e+001 -8.725608e-015 -4.750000e+001
      vertex  4.300000e+001 -3.638711e+001 -3.053241e+001
      vertex  4.300000e+001 -4.113621e+001 -2.375000e+001
    endloop
  endfacet
  facet normal -1.000000e+000  0.000000e+000  0.000000e+000
    outer loop
      vertex  4.300000e+001 -8.725608e-015 -4.750000e+001
      vertex  4.300000e+001 -4.113621e+001 -2.375000e+001
      vertex  4.300000e+001 -2.490510e+000 -1.732187e+001
    endloop
  endfacet
  facet normal -1.000000e+000  0.000000e+000  0.000000e+000
    outer loop
      vertex  4.300000e+001 -8.725608e-015 -4.750000e+001
      vertex  4.300000e+001 -2.490510e+000 -1.732187e+001
      vertex  4.300000e+001  2.490510e+000 -1.732187e+001
    endloop
  endfacet
  facet normal -1.000000e+000  0.000000e+000  -0.000000e+000
    outer loop
      vertex  4.300000e+001 -8.725608e-015 -4.750000e+001
      vertex  4.300000e+001  2.490510e+000 -1.732187e+001
      vertex  4.300000e+001  4.113621e+001 -2.375000e+001
    endloop
  endfacet
  facet normal -1.000000e+000  0.000000e+000  0.000000e+000
    outer loop
      vertex  4.300000e+001 -8.725608e-015 -4.750000e+001
      vertex  4.300000e+001  4.113621e+001 -2.375000e+001
      vertex  4.300000e+001  3.638711e+001 -3.053241e+001
    endloop
  endfacet
  facet normal -9.999999e-001  0.000000e+000  0.000000e+000
    outer loop
      vertex  4.300000e+001 -8.725608e-015 -4.750000e+001
      vertex  4.300000e+001  3.638711e+001 -3.053241e+001
      vertex  4.300000e+001  3.053241e+001 -3.638711e+001
    endloop
  endfacet
  facet normal -1.000000e+000  0.000000e+000  0.000000e+000
    outer loop
      vertex  4.300000e+001 -8.725608e-015 -4.750000e+001
      vertex  4.300000e+001  3.053241e+001 -3.638711e+001
      vertex  4.300000e+001  2.375000e+001 -4.113621e+001
    endloop
  endfacet
  facet normal -1.000000e+000  0.000000e+000  0.000000e+000
    outer loop
      vertex  4.300000e+001 -8.725608e-015 -4.750000e+001
      vertex  4.300000e+001  2.375000e+001 -4.113621e+001
      vertex  4.300000e+001  1.624596e+001 -4.463540e+001
    endloop
  endfacet
  facet normal -1.000000e+000  0.000000e+000  0.000000e+000
    outer loop
      vertex  4.300000e+001 -8.725608e-015 -4.750000e+001
      vertex  4.300000e+001  1.624596e+001 -4.463540e+001
      vertex  4.300000e+001  8.248288e+000 -4.677837e+001
    endloop
  endfacet
  facet normal -1.000000e+000  0.000000e+000  0.000000e+000
    outer loop
      vertex  4.300000e+001  2.490510e+000  1.732187e+001
      vertex  4.300000e+001 -2.490510e+000  1.732187e+001
      vertex  4.300000e+001  8.248288e+000  4.677837e+001
    endloop
  endfacet
  facet normal -1.000000e+000  -0.000000e+000  0.000000e+000
    outer loop
      vertex  4.300000e+001  8.248288e+000  4.677837e+001
      vertex  4.300000e+001 -2.490510e+000  1.732187e+001
      vertex  4.300000e+001  2.908536e-015  4.750000e+001
    endloop
  endfacet
  facet normal -1.000000e+000  0.000000e+000  0.000000e+000
    outer loop
      vertex  4.300000e+001 -2.490510e+000  1.732187e+001
      vertex  4.300000e+001 -4.113621e+001  2.375000e+001
      vertex  4.300000e+001  2.908536e-015  4.750000e+001
    endloop
  endfacet
  facet normal -1.000000e+000  0.000000e+000  0.000000e+000
    outer loop
      vertex  4.300000e+001  2.908536e-015  4.750000e+001
      vertex  4.300000e+001 -4.113621e+001  2.375000e+001
      vertex  4.300000e+001 -8.248288e+000  4.677837e+001
    endloop
  endfacet
  facet normal -1.000000e+000  0.000000e+000  0.000000e+000
    outer loop
      vertex  4.300000e+001 -7.269763e+000  1.591856e+001
      vertex  4.300000e+001 -4.463540e+001  1.624596e+001
      vertex  4.300000e+001 -2.490510e+000  1.732187e+001
    endloop
  endfacet
  facet normal -1.000000e+000  -0.000000e+000  0.000000e+000
    outer loop
      vertex  4.300000e+001 -2.490510e+000  1.732187e+001
      vertex  4.300000e+001 -4.463540e+001  1.624596e+001
      vertex  4.300000e+001 -4.113621e+001  2.375000e+001
    endloop
  endfacet
  facet normal -1.000000e+000  0.000000e+000  0.000000e+000
    outer loop
      vertex  4.300000e+001 -1.679113e+001  4.930320e+000
      vertex  4.300000e+001 -1.750000e+001  2.143132e-015
      vertex  4.300000e+001 -4.750000e+001  5.817072e-015
    endloop
  endfacet
  facet normal -1.000000e+000  0.000000e+000  0.000000e+000
    outer loop
      vertex  4.300000e+001 -4.750000e+001  5.817072e-015
      vertex  4.300000e+001 -1.750000e+001  2.143132e-015
      vertex  4.300000e+001 -1.679113e+001 -4.930320e+000
    endloop
  endfacet
  facet normal -9.999999e-001  -0.000000e+000  0.000000e+000
    outer loop
      vertex  4.300000e+001 -4.750000e+001  5.817072e-015
      vertex  4.300000e+001 -1.679113e+001 -4.930320e+000
      vertex  4.300000e+001 -4.677837e+001 -8.248288e+000
    endloop
  endfacet
  facet normal -1.000000e+000  0.000000e+000  0.000000e+000
    outer loop
      vertex  4.300000e+001  1.472194e+001  9.461214e+000
      vertex  4.300000e+001  1.146006e+001  1.322562e+001
      vertex  4.300000e+001  4.677837e+001  8.248288e+000
    endloop
  endfacet
  facet normal -1.000000e+000  0.000000e+000  0.000000e+000
    outer loop
      vertex  4.300000e+001  4.677837e+001  8.248288e+000
      vertex  4.300000e+001  1.146006e+001  1.322562e+001
      vertex  4.300000e+001  7.269763e+000  1.591856e+001
    endloop
  endfacet
  facet normal -1.000000e+000  0.000000e+000  0.000000e+000
    outer loop
      vertex  4.300000e+001  4.677837e+001  8.248288e+000
      vertex  4.300000e+001  7.269763e+000  1.591856e+001
      vertex  4.300000e+001  4.463540e+001  1.624596e+001
    endloop
  endfacet
  facet normal -1.000000e+000  0.000000e+000  0.000000e+000
    outer loop
      vertex  4.300000e+001  1.750000e+001  0.000000e+000
      vertex  4.300000e+001  1.679113e+001  4.930320e+000
      vertex  4.300000e+001  4.750000e+001  0.000000e+000
    endloop
  endfacet
  facet normal -1.000000e+000  0.000000e+000  0.000000e+000
    outer loop
      vertex  4.300000e+001  4.750000e+001  0.000000e+000
      vertex  4.300000e+001  1.679113e+001  4.930320e+000
      vertex  4.300000e+001  1.472194e+001  9.461214e+000
    endloop
  endfacet
  facet normal -1.000000e+000  0.000000e+000  0.000000e+000
    outer loop
      vertex  4.300000e+001  4.750000e+001  0.000000e+000
      vertex  4.300000e+001  1.472194e+001  9.461214e+000
      vertex  4.300000e+001  4.677837e+001  8.248288e+000
    endloop
  endfacet
  facet normal -1.000000e+000  0.000000e+000  -0.000000e+000
    outer loop
      vertex  4.300000e+001  1.472194e+001 -9.461214e+000
      vertex  4.300000e+001  1.679113e+001 -4.930320e+000
      vertex  4.300000e+001  4.677837e+001 -8.248288e+000
    endloop
  endfacet
  facet normal -1.000000e+000  0.000000e+000  0.000000e+000
    outer loop
      vertex  4.300000e+001  4.677837e+001 -8.248288e+000
      vertex  4.300000e+001  1.679113e+001 -4.930320e+000
      vertex  4.300000e+001  1.750000e+001  0.000000e+000
    endloop
  endfacet
  facet normal -1.000000e+000  0.000000e+000  0.000000e+000
    outer loop
      vertex  4.300000e+001  4.677837e+001 -8.248288e+000
      vertex  4.300000e+001  1.750000e+001  0.000000e+000
      vertex  4.300000e+001  4.750000e+001  0.000000e+000
    endloop
  endfacet
  facet normal -9.999999e-001  0.000000e+000  -0.000000e+000
    outer loop
      vertex  4.300000e+001  7.269763e+000 -1.591856e+001
      vertex  4.300000e+001  1.146006e+001 -1.322562e+001
      vertex  4.300000e+001  4.463540e+001 -1.624596e+001
    endloop
  endfacet
  facet normal -9.999999e-001  0.000000e+000  0.000000e+000
    outer loop
      vertex  4.300000e+001  4.463540e+001 -1.624596e+001
      vertex  4.300000e+001  1.146006e+001 -1.322562e+001
      vertex  4.300000e+001  1.472194e+001 -9.461214e+000
    endloop
  endfacet
  facet normal -1.000000e+000  0.000000e+000  0.000000e+000
    outer loop
      vertex  4.300000e+001  4.463540e+001 -1.624596e+001
      vertex  4.300000e+001  1.472194e+001 -9.461214e+000
      vertex  4.300000e+001  4.677837e+001 -8.248288e+000
    endloop
  endfacet
  facet normal -1.000000e+000  0.000000e+000  -0.000000e+000
    outer loop
      vertex  4.300000e+001  2.490510e+000 -1.732187e+001
      vertex  4.300000e+001  7.269763e+000 -1.591856e+001
      vertex  4.300000e+001  4.113621e+001 -2.375000e+001
    endloop
  endfacet
  facet normal -1.000000e+000  0.000000e+000  0.000000e+000
    outer loop
      vertex  4.300000e+001  4.113621e+001 -2.375000e+001
      vertex  4.300000e+001  7.269763e+000 -1.591856e+001
      vertex  4.300000e+001  4.463540e+001 -1.624596e+001
    endloop
  endfacet
  facet normal  0.000000e+000  2.817324e-001 -9.594930e-001
    outer loop
      vertex  4.300000e+001 -2.490510e+000  1.732187e+001
      vertex  1.070000e+002 -7.269763e+000  1.591856e+001
      vertex  4.300000e+001 -7.269763e+000  1.591856e+001
    endloop
  endfacet
  facet normal  0.000000e+000  5.406408e-001 -8.412535e-001
    outer loop
      vertex  4.300000e+001 -7.269763e+000  1.591856e+001
      vertex  1.070000e+002 -7.269763e+000  1.591856e+001
      vertex  1.070000e+002 -1.146006e+001  1.322562e+001
    endloop
  endfacet
  facet normal  0.000000e+000  5.406408e-001 -8.412535e-001
    outer loop
      vertex  4.300000e+001 -7.269763e+000  1.591856e+001
      vertex  1.070000e+002 -1.146006e+001  1.322562e+001
      vertex  4.300000e+001 -1.146006e+001  1.322562e+001
    endloop
  endfacet
  facet normal  0.000000e+000  7.557495e-001 -6.548607e-001
    outer loop
      vertex  4.300000e+001 -1.146006e+001  1.322562e+001
      vertex  1.070000e+002 -1.146006e+001  1.322562e+001
      vertex  1.070000e+002 -1.472194e+001  9.461214e+000
    endloop
  endfacet
  facet normal  0.000000e+000  7.557495e-001 -6.548607e-001
    outer loop
      vertex  4.300000e+001 -1.146006e+001  1.322562e+001
      vertex  1.070000e+002 -1.472194e+001  9.461214e+000
      vertex  4.300000e+001 -1.472194e+001  9.461214e+000
    endloop
  endfacet
  facet normal  0.000000e+000  9.096321e-001 -4.154148e-001
    outer loop
      vertex  4.300000e+001 -1.472194e+001  9.461214e+000
      vertex  1.070000e+002 -1.472194e+001  9.461214e+000
      vertex  1.070000e+002 -1.679113e+001  4.930320e+000
    endloop
  endfacet
  facet normal  0.000000e+000  9.096321e-001 -4.154148e-001
    outer loop
      vertex  4.300000e+001 -1.472194e+001  9.461214e+000
      vertex  1.070000e+002 -1.679113e+001  4.930320e+000
      vertex  4.300000e+001 -1.679113e+001  4.930320e+000
    endloop
  endfacet
  facet normal  0.000000e+000  9.898214e-001 -1.423150e-001
    outer loop
      vertex  4.300000e+001 -1.679113e+001  4.930320e+000
      vertex  1.070000e+002 -1.679113e+001  4.930320e+000
      vertex  1.070000e+002 -1.750000e+001  2.143132e-015
    endloop
  endfacet
  facet normal  0.000000e+000  9.898214e-001 -1.423150e-001
    outer loop
      vertex  4.300000e+001 -1.679113e+001  4.930320e+000
      vertex  1.070000e+002 -1.750000e+001  2.143132e-015
      vertex  4.300000e+001 -1.750000e+001  2.143132e-015
    endloop
  endfacet
  facet normal  0.000000e+000  2.817324e-001 -9.594930e-001
    outer loop
      vertex  1.070000e+002 -7.269763e+000  1.591856e+001
      vertex  4.300000e+001 -2.490510e+000  1.732187e+001
      vertex  1.070000e+002 -2.490510e+000  1.732187e+001
    endloop
  endfacet
  facet normal  0.000000e+000  0.000000e+000 -1.000000e+000
    outer loop
      vertex  1.070000e+002 -2.490510e+000  1.732187e+001
      vertex  4.300000e+001 -2.490510e+000  1.732187e+001
      vertex  4.300000e+001  2.490510e+000  1.732187e+001
    endloop
  endfacet
  facet normal  0.000000e+000  0.000000e+000 -1.000000e+000
    outer loop
      vertex  1.070000e+002 -2.490510e+000  1.732187e+001
      vertex  4.300000e+001  2.490510e+000  1.732187e+001
      vertex  1.070000e+002  2.490510e+000  1.732187e+001
    endloop
  endfacet
  facet normal  -0.000000e+000 -2.817324e-001 -9.594930e-001
    outer loop
      vertex  1.070000e+002  2.490510e+000  1.732187e+001
      vertex  4.300000e+001  2.490510e+000  1.732187e+001
      vertex  4.300000e+001  7.269763e+000  1.591856e+001
    endloop
  endfacet
  facet normal  0.000000e+000 -2.817324e-001 -9.594930e-001
    outer loop
      vertex  1.070000e+002  2.490510e+000  1.732187e+001
      vertex  4.300000e+001  7.269763e+000  1.591856e+001
      vertex  1.070000e+002  7.269763e+000  1.591856e+001
    endloop
  endfacet
  facet normal  -0.000000e+000 -5.406408e-001 -8.412535e-001
    outer loop
      vertex  1.070000e+002  7.269763e+000  1.591856e+001
      vertex  4.300000e+001  7.269763e+000  1.591856e+001
      vertex  4.300000e+001  1.146006e+001  1.322562e+001
    endloop
  endfacet
  facet normal  0.000000e+000 -5.406408e-001 -8.412535e-001
    outer loop
      vertex  1.070000e+002  7.269763e+000  1.591856e+001
      vertex  4.300000e+001  1.146006e+001  1.322562e+001
      vertex  1.070000e+002  1.146006e+001  1.322562e+001
    endloop
  endfacet
  facet normal  -0.000000e+000 -7.557495e-001 -6.548607e-001
    outer loop
      vertex  1.070000e+002  1.146006e+001  1.322562e+001
      vertex  4.300000e+001  1.146006e+001  1.322562e+001
      vertex  4.300000e+001  1.472194e+001  9.461214e+000
    endloop
  endfacet
  facet normal  0.000000e+000 -7.557495e-001 -6.548607e-001
    outer loop
      vertex  1.070000e+002  1.146006e+001  1.322562e+001
      vertex  4.300000e+001  1.472194e+001  9.461214e+000
      vertex  1.070000e+002  1.472194e+001  9.461214e+000
    endloop
  endfacet
  facet normal  -0.000000e+000 -9.096321e-001 -4.154148e-001
    outer loop
      vertex  1.070000e+002  1.472194e+001  9.461214e+000
      vertex  4.300000e+001  1.472194e+001  9.461214e+000
      vertex  4.300000e+001  1.679113e+001  4.930320e+000
    endloop
  endfacet
  facet normal  0.000000e+000 -9.096321e-001 -4.154148e-001
    outer loop
      vertex  1.070000e+002  1.472194e+001  9.461214e+000
      vertex  4.300000e+001  1.679113e+001  4.930320e+000
      vertex  1.070000e+002  1.679113e+001  4.930320e+000
    endloop
  endfacet
  facet normal  -0.000000e+000 -9.898214e-001 -1.423150e-001
    outer loop
      vertex  1.070000e+002  1.679113e+001  4.930320e+000
      vertex  4.300000e+001  1.679113e+001  4.930320e+000
      vertex  4.300000e+001  1.750000e+001  0.000000e+000
    endloop
  endfacet
  facet normal  0.000000e+000 -9.898214e-001 -1.423150e-001
    outer loop
      vertex  1.070000e+002  1.679113e+001  4.930320e+000
      vertex  4.300000e+001  1.750000e+001  0.000000e+000
      vertex  1.070000e+002  1.750000e+001  0.000000e+000
    endloop
  endfacet
  facet normal  0.000000e+000 -2.817324e-001  9.594930e-001
    outer loop
      vertex  4.300000e+001  2.490510e+000 -1.732187e+001
      vertex  1.070000e+002  7.269763e+000 -1.591856e+001
      vertex  4.300000e+001  7.269763e+000 -1.591856e+001
    endloop
  endfacet
  facet normal  0.000000e+000 -5.406408e-001  8.412535e-001
    outer loop
      vertex  4.300000e+001  7.269763e+000 -1.591856e+001
      vertex  1.070000e+002  7.269763e+000 -1.591856e+001
      vertex  1.070000e+002  1.146006e+001 -1.322562e+001
    endloop
  endfacet
  facet normal  0.000000e+000 -5.406408e-001  8.412535e-001
    outer loop
      vertex  4.300000e+001  7.269763e+000 -1.591856e+001
      vertex  1.070000e+002  1.146006e+001 -1.322562e+001
      vertex  4.300000e+001  1.146006e+001 -1.322562e+001
    endloop
  endfacet
  facet normal  0.000000e+000 -7.557495e-001  6.548607e-001
    outer loop
      vertex  4.300000e+001  1.146006e+001 -1.322562e+001
      vertex  1.070000e+002  1.146006e+001 -1.322562e+001
      vertex  1.070000e+002  1.472194e+001 -9.461214e+000
    endloop
  endfacet
  facet normal  0.000000e+000 -7.557495e-001  6.548607e-001
    outer loop
      vertex  4.300000e+001  1.146006e+001 -1.322562e+001
      vertex  1.070000e+002  1.472194e+001 -9.461214e+000
      vertex  4.300000e+001  1.472194e+001 -9.461214e+000
    endloop
  endfacet
  facet normal  0.000000e+000 -9.096321e-001  4.154148e-001
    outer loop
      vertex  4.300000e+001  1.472194e+001 -9.461214e+000
      vertex  1.070000e+002  1.472194e+001 -9.461214e+000
      vertex  1.070000e+002  1.679113e+001 -4.930320e+000
    endloop
  endfacet
  facet normal  0.000000e+000 -9.096321e-001  4.154148e-001
    outer loop
      vertex  4.300000e+001  1.472194e+001 -9.461214e+000
      vertex  1.070000e+002  1.679113e+001 -4.930320e+000
      vertex  4.300000e+001  1.679113e+001 -4.930320e+000
    endloop
  endfacet
  facet normal  0.000000e+000 -9.898214e-001  1.423150e-001
    outer loop
      vertex  4.300000e+001  1.679113e+001 -4.930320e+000
      vertex  1.070000e+002  1.679113e+001 -4.930320e+000
      vertex  1.070000e+002  1.750000e+001  0.000000e+000
    endloop
  endfacet
  facet normal  0.000000e+000 -9.898214e-001  1.423150e-001
    outer loop
      vertex  4.300000e+001  1.679113e+001 -4.930320e+000
      vertex  1.070000e+002  1.750000e+001  0.000000e+000
      vertex  4.300000e+001  1.750000e+001  0.000000e+000
    endloop
  endfacet
  facet normal  0.000000e+000 -2.817324e-001  9.594930e-001
    outer loop
      vertex  1.070000e+002  7.269763e+000 -1.591856e+001
      vertex  4.300000e+001  2.490510e+000 -1.732187e+001
      vertex  1.070000e+002  2.490510e+000 -1.732187e+001
    endloop
  endfacet
  facet normal  0.000000e+000  0.000000e+000  1.000000e+000
    outer loop
      vertex  1.070000e+002  2.490510e+000 -1.732187e+001
      vertex  4.300000e+001  2.490510e+000 -1.732187e+001
      vertex  4.300000e+001 -2.490510e+000 -1.732187e+001
    endloop
  endfacet
  facet normal  0.000000e+000  0.000000e+000  1.000000e+000
    outer loop
      vertex  1.070000e+002  2.490510e+000 -1.732187e+001
      vertex  4.300000e+001 -2.490510e+000 -1.732187e+001
      vertex  1.070000e+002 -2.490510e+000 -1.732187e+001
    endloop
  endfacet
  facet normal  0.000000e+000  2.817324e-001  9.594930e-001
    outer loop
      vertex  1.070000e+002 -2.490510e+000 -1.732187e+001
      vertex  4.300000e+001 -2.490510e+000 -1.732187e+001
      vertex  4.300000e+001 -7.269763e+000 -1.591856e+001
    endloop
  endfacet
  facet normal  -0.000000e+000  2.817324e-001  9.594930e-001
    outer loop
      vertex  1.070000e+002 -2.490510e+000 -1.732187e+001
      vertex  4.300000e+001 -7.269763e+000 -1.591856e+001
      vertex  1.070000e+002 -7.269763e+000 -1.591856e+001
    endloop
  endfacet
  facet normal  0.000000e+000  5.406408e-001  8.412535e-001
    outer loop
      vertex  1.070000e+002 -7.269763e+000 -1.591856e+001
      vertex  4.300000e+001 -7.269763e+000 -1.591856e+001
      vertex  4.300000e+001 -1.146006e+001 -1.322562e+001
    endloop
  endfacet
  facet normal  -0.000000e+000  5.406408e-001  8.412535e-001
    outer loop
      vertex  1.070000e+002 -7.269763e+000 -1.591856e+001
      vertex  4.300000e+001 -1.146006e+001 -1.322562e+001
      vertex  1.070000e+002 -1.146006e+001 -1.322562e+001
    endloop
  endfacet
  facet normal  0.000000e+000  7.557495e-001  6.548607e-001
    outer loop
      vertex  1.070000e+002 -1.146006e+001 -1.322562e+001
      vertex  4.300000e+001 -1.146006e+001 -1.322562e+001
      vertex  4.300000e+001 -1.472194e+001 -9.461214e+000
    endloop
  endfacet
  facet normal  -0.000000e+000  7.557495e-001  6.548607e-001
    outer loop
      vertex  1.070000e+002 -1.146006e+001 -1.322562e+001
      vertex  4.300000e+001 -1.472194e+001 -9.461214e+000
      vertex  1.070000e+002 -1.472194e+001 -9.461214e+000
    endloop
  endfacet
  facet normal  0.000000e+000  9.096321e-001  4.154148e-001
    outer loop
      vertex  1.070000e+002 -1.472194e+001 -9.461214e+000
      vertex  4.300000e+001 -1.472194e+001 -9.461214e+000
      vertex  4.300000e+001 -1.679113e+001 -4.930320e+000
    endloop
  endfacet
  facet normal  -0.000000e+000  9.096321e-001  4.154148e-001
    outer loop
      vertex  1.070000e+002 -1.472194e+001 -9.461214e+000
      vertex  4.300000e+001 -1.679113e+001 -4.930320e+000
      vertex  1.070000e+002 -1.679113e+001 -4.930320e+000
    endloop
  endfacet
  facet normal  0.000000e+000  9.898214e-001  1.423150e-001
    outer loop
      vertex  1.070000e+002 -1.679113e+001 -4.930320e+000
      vertex  4.300000e+001 -1.679113e+001 -4.930320e+000
      vertex  4.300000e+001 -1.750000e+001  2.143132e-015
    endloop
  endfacet
  facet normal  -0.000000e+000  9.898214e-001  1.423150e-001
    outer loop
      vertex  1.070000e+002 -1.679113e+001 -4.930320e+000
      vertex  4.300000e+001 -1.750000e+001  2.143132e-015
      vertex  1.070000e+002 -1.750000e+001  2.143132e-015
    endloop
  endfacet
  facet normal  0.000000e+000  9.961947e-001 -8.715555e-002
    outer loop
      vertex  4.300000e+001  4.750000e+001  0.000000e+000
      vertex  1.070000e+002  4.750000e+001  0.000000e+000
      vertex  4.300000e+001  4.677837e+001 -8.248288e+000
    endloop
  endfacet
  facet normal  0.000000e+000  9.961947e-001 -8.715555e-002
    outer loop
      vertex  4.300000e+001  4.677837e+001 -8.248288e+000
      vertex  1.070000e+002  4.750000e+001  0.000000e+000
      vertex  1.070000e+002  4.677837e+001 -8.248288e+000
    endloop
  endfacet
  facet normal  0.000000e+000  9.659258e-001 -2.588193e-001
    outer loop
      vertex  4.300000e+001  4.677837e+001 -8.248288e+000
      vertex  1.070000e+002  4.677837e+001 -8.248288e+000
      vertex  4.300000e+001  4.463540e+001 -1.624596e+001
    endloop
  endfacet
  facet normal  0.000000e+000  9.659258e-001 -2.588193e-001
    outer loop
      vertex  4.300000e+001  4.463540e+001 -1.624596e+001
      vertex  1.070000e+002  4.677837e+001 -8.248288e+000
      vertex  1.070000e+002  4.463540e+001 -1.624596e+001
    endloop
  endfacet
  facet normal  0.000000e+000  9.063079e-001 -4.226181e-001
    outer loop
      vertex  4.300000e+001  4.463540e+001 -1.624596e+001
      vertex  1.070000e+002  4.463540e+001 -1.624596e+001
      vertex  4.300000e+001  4.113621e+001 -2.375000e+001
    endloop
  endfacet
  facet normal  0.000000e+000  9.063079e-001 -4.226181e-001
    outer loop
      vertex  4.300000e+001  4.113621e+001 -2.375000e+001
      vertex  1.070000e+002  4.463540e+001 -1.624596e+001
      vertex  1.070000e+002  4.113621e+001 -2.375000e+001
    endloop
  endfacet
  facet normal  0.000000e+000  8.191521e-001 -5.735765e-001
    outer loop
      vertex  4.300000e+001  4.113621e+001 -2.375000e+001
      vertex  1.070000e+002  4.113621e+001 -2.375000e+001
      vertex  4.300000e+001  3.638711e+001 -3.053241e+001
    endloop
  endfacet
  facet normal  0.000000e+000  8.191521e-001 -5.735765e-001
    outer loop
      vertex  4.300000e+001  3.638711e+001 -3.053241e+001
      vertex  1.070000e+002  4.113621e+001 -2.375000e+001
      vertex  1.070000e+002  3.638711e+001 -3.053241e+001
    endloop
  endfacet
  facet normal  0.000000e+000  7.071068e-001 -7.071068e-001
    outer loop
      vertex  4.300000e+001  3.638711e+001 -3.053241e+001
      vertex  1.070000e+002  3.638711e+001 -3.053241e+001
      vertex  4.300000e+001  3.053241e+001 -3.638711e+001
    endloop
  endfacet
  facet normal  0.000000e+000  7.071068e-001 -7.071068e-001
    outer loop
      vertex  4.300000e+001  3.053241e+001 -3.638711e+001
      vertex  1.070000e+002  3.638711e+001 -3.053241e+001
      vertex  1.070000e+002  3.053241e+001 -3.638711e+001
    endloop
  endfacet
  facet normal  0.000000e+000  5.735765e-001 -8.191521e-001
    outer loop
      vertex  4.300000e+001  3.053241e+001 -3.638711e+001
      vertex  1.070000e+002  3.053241e+001 -3.638711e+001
      vertex  4.300000e+001  2.375000e+001 -4.113621e+001
    endloop
  endfacet
  facet normal  0.000000e+000  5.735765e-001 -8.191521e-001
    outer loop
      vertex  4.300000e+001  2.375000e+001 -4.113621e+001
      vertex  1.070000e+002  3.053241e+001 -3.638711e+001
      vertex  1.070000e+002  2.375000e+001 -4.113621e+001
    endloop
  endfacet
  facet normal  0.000000e+000  4.226181e-001 -9.063079e-001
    outer loop
      vertex  4.300000e+001  2.375000e+001 -4.113621e+001
      vertex  1.070000e+002  2.375000e+001 -4.113621e+001
      vertex  4.300000e+001  1.624596e+001 -4.463540e+001
    endloop
  endfacet
  facet normal  0.000000e+000  4.226181e-001 -9.063079e-001
    outer loop
      vertex  4.300000e+001  1.624596e+001 -4.463540e+001
      vertex  1.070000e+002  2.375000e+001 -4.113621e+001
      vertex  1.070000e+002  1.624596e+001 -4.463540e+001
    endloop
  endfacet
  facet normal  0.000000e+000  2.588193e-001 -9.659258e-001
    outer loop
      vertex  4.300000e+001  1.624596e+001 -4.463540e+001
      vertex  1.070000e+002  1.624596e+001 -4.463540e+001
      vertex  4.300000e+001  8.248288e+000 -4.677837e+001
    endloop
  endfacet
  facet normal  0.000000e+000  2.588193e-001 -9.659258e-001
    outer loop
      vertex  4.300000e+001  8.248288e+000 -4.677837e+001
      vertex  1.070000e+002  1.624596e+001 -4.463540e+001
      vertex  1.070000e+002  8.248288e+000 -4.677837e+001
    endloop
  endfacet
  facet normal  0.000000e+000  8.715555e-002 -9.961947e-001
    outer loop
      vertex  4.300000e+001  8.248288e+000 -4.677837e+001
      vertex  1.070000e+002  8.248288e+000 -4.677837e+001
      vertex  4.300000e+001 -8.725608e-015 -4.750000e+001
    endloop
  endfacet
  facet normal  0.000000e+000  8.715555e-002 -9.961947e-001
    outer loop
      vertex  4.300000e+001 -8.725608e-015 -4.750000e+001
      vertex  1.070000e+002  8.248288e+000 -4.677837e+001
      vertex  1.070000e+002 -8.725608e-015 -4.750000e+001
    endloop
  endfacet
  facet normal  -0.000000e+000 -8.715555e-002 -9.961947e-001
    outer loop
      vertex  4.300000e+001 -8.725608e-015 -4.750000e+001
      vertex  1.070000e+002 -8.725608e-015 -4.750000e+001
      vertex  4.300000e+001 -8.248288e+000 -4.677837e+001
    endloop
  endfacet
  facet normal  0.000000e+000 -8.715555e-002 -9.961947e-001
    outer loop
      vertex  4.300000e+001 -8.248288e+000 -4.677837e+001
      vertex  1.070000e+002 -8.725608e-015 -4.750000e+001
      vertex  1.070000e+002 -8.248288e+000 -4.677837e+001
    endloop
  endfacet
  facet normal  -0.000000e+000 -2.588193e-001 -9.659258e-001
    outer loop
      vertex  4.300000e+001 -8.248288e+000 -4.677837e+001
      vertex  1.070000e+002 -8.248288e+000 -4.677837e+001
      vertex  4.300000e+001 -1.624596e+001 -4.463540e+001
    endloop
  endfacet
  facet normal  0.000000e+000 -2.588193e-001 -9.659258e-001
    outer loop
      vertex  4.300000e+001 -1.624596e+001 -4.463540e+001
      vertex  1.070000e+002 -8.248288e+000 -4.677837e+001
      vertex  1.070000e+002 -1.624596e+001 -4.463540e+001
    endloop
  endfacet
  facet normal  -0.000000e+000 -4.226181e-001 -9.063079e-001
    outer loop
      vertex  4.300000e+001 -1.624596e+001 -4.463540e+001
      vertex  1.070000e+002 -1.624596e+001 -4.463540e+001
      vertex  4.300000e+001 -2.375000e+001 -4.113621e+001
    endloop
  endfacet
  facet normal  0.000000e+000 -4.226181e-001 -9.063079e-001
    outer loop
      vertex  4.300000e+001 -2.375000e+001 -4.113621e+001
      vertex  1.070000e+002 -1.624596e+001 -4.463540e+001
      vertex  1.070000e+002 -2.375000e+001 -4.113621e+001
    endloop
  endfacet
  facet normal  -0.000000e+000 -5.735765e-001 -8.191521e-001
    outer loop
      vertex  4.300000e+001 -2.375000e+001 -4.113621e+001
      vertex  1.070000e+002 -2.375000e+001 -4.113621e+001
      vertex  4.300000e+001 -3.053241e+001 -3.638711e+001
    endloop
  endfacet
  facet normal  0.000000e+000 -5.735765e-001 -8.191521e-001
    outer loop
      vertex  4.300000e+001 -3.053241e+001 -3.638711e+001
      vertex  1.070000e+002 -2.375000e+001 -4.113621e+001
      vertex  1.070000e+002 -3.053241e+001 -3.638711e+001
    endloop
  endfacet
  facet normal  -0.000000e+000 -7.071068e-001 -7.071068e-001
    outer loop
      vertex  4.300000e+001 -3.053241e+001 -3.638711e+001
      vertex  1.070000e+002 -3.053241e+001 -3.638711e+001
      vertex  4.300000e+001 -3.638711e+001 -3.053241e+001
    endloop
  endfacet
  facet normal  0.000000e+000 -7.071068e-001 -7.071068e-001
    outer loop
      vertex  4.300000e+001 -3.638711e+001 -3.053241e+001
      vertex  1.070000e+002 -3.053241e+001 -3.638711e+001
      vertex  1.070000e+002 -3.638711e+001 -3.053241e+001
    endloop
  endfacet
  facet normal  -0.000000e+000 -8.191521e-001 -5.735765e-001
    outer loop
      vertex  4.300000e+001 -3.638711e+001 -3.053241e+001
      vertex  1.070000e+002 -3.638711e+001 -3.053241e+001
      vertex  4.300000e+001 -4.113621e+001 -2.375000e+001
    endloop
  endfacet
  facet normal  0.000000e+000 -8.191521e-001 -5.735765e-001
    outer loop
      vertex  4.300000e+001 -4.113621e+001 -2.375000e+001
      vertex  1.070000e+002 -3.638711e+001 -3.053241e+001
      vertex  1.070000e+002 -4.113621e+001 -2.375000e+001
    endloop
  endfacet
  facet normal  -0.000000e+000 -9.063079e-001 -4.226181e-001
    outer loop
      vertex  4.300000e+001 -4.113621e+001 -2.375000e+001
      vertex  1.070000e+002 -4.113621e+001 -2.375000e+001
      vertex  4.300000e+001 -4.463540e+001 -1.624596e+001
    endloop
  endfacet
  facet normal  0.000000e+000 -9.063079e-001 -4.226181e-001
    outer loop
      vertex  4.300000e+001 -4.463540e+001 -1.624596e+001
      vertex  1.070000e+002 -4.113621e+001 -2.375000e+001
      vertex  1.070000e+002 -4.463540e+001 -1.624596e+001
    endloop
  endfacet
  facet normal  -0.000000e+000 -9.659258e-001 -2.588193e-001
    outer loop
      vertex  4.300000e+001 -4.463540e+001 -1.624596e+001
      vertex  1.070000e+002 -4.463540e+001 -1.624596e+001
      vertex  4.300000e+001 -4.677837e+001 -8.248288e+000
    endloop
  endfacet
  facet normal  0.000000e+000 -9.659258e-001 -2.588193e-001
    outer loop
      vertex  4.300000e+001 -4.677837e+001 -8.248288e+000
      vertex  1.070000e+002 -4.463540e+001 -1.624596e+001
      vertex  1.070000e+002 -4.677837e+001 -8.248288e+000
    endloop
  endfacet
  facet normal  -0.000000e+000 -9.961947e-001 -8.715555e-002
    outer loop
      vertex  4.300000e+001 -4.677837e+001 -8.248288e+000
      vertex  1.070000e+002 -4.677837e+001 -8.248288e+000
      vertex  4.300000e+001 -4.750000e+001  5.817072e-015
    endloop
  endfacet
  facet normal  0.000000e+000 -9.961947e-001 -8.715555e-002
    outer loop
      vertex  4.300000e+001 -4.750000e+001  5.817072e-015
      vertex  1.070000e+002 -4.677837e+001 -8.248288e+000
      vertex  1.070000e+002 -4.750000e+001  5.817072e-015
    endloop
  endfacet
endsolid CATIA STL
